<?xml version="1.0" standalone="no"?>
<!DOCTYPE svg PUBLIC "-//W3C//DTD SVG 20010904//EN"
 "http://www.w3.org/TR/2001/REC-SVG-20010904/DTD/svg10.dtd">
<svg version="1.0" xmlns="http://www.w3.org/2000/svg"
 width="1280.000000pt" height="853.000000pt" viewBox="0 0 1280.000000 853.000000"
 preserveAspectRatio="xMidYMid meet">
<metadata>
Created by potrace 1.15, written by Peter Selinger 2001-2017
</metadata>
<g transform="translate(0.000000,853.000000) scale(0.100000,-0.100000)"
fill="#00bcd4" stroke="none">
<path d="M6325 7417 c-68 -23 -101 -44 -148 -97 -56 -62 -77 -120 -84 -231 -4
-65 -2 -94 10 -120 9 -21 17 -79 21 -149 8 -154 27 -239 59 -262 66 -48 69
-52 58 -78 -5 -14 -10 -20 -11 -15 0 6 -15 -6 -33 -26 -26 -29 -52 -43 -137
-71 -58 -20 -130 -41 -160 -48 -30 -6 -63 -14 -73 -17 -32 -9 -88 -65 -113
-114 -34 -68 -84 -247 -84 -303 l0 -46 835 0 835 0 0 45 c0 29 -16 85 -46 162
-92 240 -110 256 -374 324 -136 35 -161 51 -180 119 -9 31 -7 37 20 65 36 37
47 86 55 251 5 86 12 133 27 169 17 41 20 64 15 127 -9 134 -74 239 -182 296
-44 23 -64 26 -160 29 -71 2 -124 -2 -150 -10z"/>
<path d="M4200 6630 c-165 -35 -260 -153 -268 -336 -3 -70 -1 -98 12 -122 11
-21 16 -57 16 -110 0 -68 20 -223 35 -272 3 -8 25 -28 51 -44 30 -19 43 -34
40 -43 -3 -8 -6 -19 -6 -24 0 -5 -5 -9 -11 -9 -7 0 -26 -16 -43 -36 -20 -23
-41 -36 -58 -37 -16 -1 -28 -5 -28 -8 0 -4 -20 -12 -45 -19 -34 -10 -48 -10
-59 -1 -10 8 -16 9 -21 1 -3 -5 -1 -10 6 -10 27 0 -7 -19 -51 -29 -32 -7 -48
-7 -59 2 -9 8 -12 8 -8 1 8 -14 -68 -45 -91 -38 -13 5 -14 4 -3 -4 10 -7 10
-11 1 -17 -13 -8 -32 14 -24 27 3 4 1 8 -5 8 -16 0 -95 141 -83 149 6 3 0 11
-14 18 -13 6 -24 10 -24 8 0 -2 20 -38 45 -79 25 -42 45 -79 45 -81 0 -3 -12
-3 -27 0 -22 4 -21 2 5 -7 19 -6 40 -22 49 -34 13 -21 12 -26 -9 -64 -22 -38
-25 -41 -58 -35 -19 4 -36 8 -36 8 -20 24 -94 159 -90 166 3 5 0 11 -8 14 -8
3 -47 71 -87 151 -40 80 -75 143 -77 141 -2 -1 9 -27 23 -55 21 -42 24 -54 13
-61 -10 -7 -9 -9 4 -9 15 0 61 -73 96 -153 2 -4 -9 -5 -25 -2 -26 5 -25 4 5
-7 24 -10 44 -33 81 -95 32 -53 45 -84 38 -87 -7 -3 -6 -5 3 -5 8 -1 27 -20
41 -42 23 -36 25 -46 16 -81 -9 -37 -11 -39 -41 -32 -89 19 -98 26 -153 117
-29 48 -50 87 -46 87 4 0 40 -9 81 -21 40 -11 76 -19 78 -16 2 2 -34 14 -82
27 -93 25 -98 29 -153 139 -18 35 -20 45 -9 52 10 7 9 9 -4 9 -12 0 -31 26
-58 80 -34 68 -38 80 -23 81 15 0 14 2 -3 9 -26 10 -81 139 -65 150 6 3 -17
16 -51 28 -33 12 -63 20 -65 18 -3 -3 14 -10 36 -17 50 -15 50 -15 91 -114 18
-44 48 -110 66 -147 19 -37 34 -69 34 -72 0 -2 -10 -2 -22 0 -18 4 -17 2 5 -8
34 -16 129 -183 99 -174 -9 3 -30 7 -47 10 -16 3 -7 -2 20 -10 47 -15 53 -20
102 -102 28 -48 48 -88 43 -90 -11 -4 -201 45 -210 55 -8 8 -100 173 -100 178
0 2 21 -3 47 -11 26 -8 51 -13 56 -11 6 2 -18 11 -51 20 -66 18 -66 18 -116
130 l-25 57 27 -5 c23 -4 23 -3 -4 6 -26 9 -36 23 -63 87 -17 41 -29 77 -27
80 3 2 35 -6 71 -18 36 -12 68 -20 71 -18 2 3 -30 15 -72 28 -83 26 -88 32
-120 132 -16 54 -20 58 -62 73 -25 8 -47 13 -49 11 -2 -2 15 -10 38 -18 39
-13 43 -18 67 -81 13 -37 22 -70 19 -73 -3 -4 -36 4 -72 16 -36 12 -68 20 -70
18 -3 -2 33 -16 78 -31 l82 -27 32 -80 31 -80 -26 5 c-23 4 -23 3 3 -6 28 -10
58 -59 103 -171 2 -4 -5 -8 -15 -9 -13 0 -12 -3 7 -10 17 -6 40 -37 74 -101
43 -81 46 -90 27 -85 -12 3 -64 16 -117 28 l-96 23 -45 89 c-24 49 -42 91 -40
94 3 2 40 -5 82 -17 42 -12 79 -20 81 -17 2 2 -37 15 -87 29 l-92 24 -34 83
c-19 46 -32 85 -30 87 2 2 34 -5 71 -17 38 -11 70 -18 72 -16 3 2 -31 15 -75
27 l-80 24 -26 71 c-14 39 -27 77 -29 85 -2 8 -6 22 -10 31 -18 41 -43 139
-36 139 5 0 21 -5 36 -10 15 -6 29 -9 31 -6 2 2 -24 13 -58 25 -34 11 -64 19
-66 17 -3 -2 4 -7 15 -10 27 -9 70 -144 50 -157 -10 -7 -10 -9 3 -9 10 0 24
-25 42 -77 15 -43 27 -81 27 -85 0 -3 -10 -4 -22 -2 -17 4 -16 2 5 -8 23 -10
36 -31 63 -97 19 -47 33 -85 31 -87 -7 -6 -231 66 -238 78 -5 7 -18 42 -30 78
-12 36 -24 70 -26 77 -3 7 4 10 19 7 20 -4 20 -3 -3 6 -24 10 -30 26 -69 170
-24 88 -41 162 -38 165 2 3 31 -4 63 -15 32 -11 60 -18 62 -16 2 1 -56 24
-128 50 -73 25 -134 44 -136 42 -2 -2 20 -12 49 -21 29 -10 57 -21 63 -26 5
-5 17 -41 26 -79 14 -63 15 -70 0 -73 -14 -4 -14 -5 1 -6 12 -1 23 -21 38 -73
12 -40 23 -79 26 -87 5 -16 -9 -13 -147 30 l-95 31 -13 61 c-7 34 -15 73 -18
86 -5 21 -3 22 18 17 23 -6 23 -6 -2 8 -20 11 -28 26 -33 58 -4 24 -9 58 -12
75 l-6 33 42 -15 c24 -8 45 -13 47 -11 4 3 -19 12 -117 44 -12 4 -12 2 1 -9
14 -12 44 -147 35 -156 -1 -1 -57 15 -123 38 l-120 40 -8 82 c-6 76 -15 97
-40 97 -5 0 -4 -4 4 -9 13 -9 36 -149 26 -159 -5 -5 -227 68 -239 79 -5 4 -12
45 -16 91 l-7 83 -1 -85 c-3 -166 28 -444 75 -665 31 -149 74 -291 159 -526
214 -594 248 -717 280 -1009 16 -151 18 -490 3 -560 -6 -25 -14 -101 -19 -170
-15 -224 -109 -639 -255 -1123 -31 -104 -55 -190 -53 -192 2 -1 485 58 1073
131 589 74 1082 134 1098 134 15 0 27 -3 27 -7 0 -5 20 -21 45 -38 26 -18 43
-36 40 -43 -3 -8 -5 -18 -5 -23 0 -5 -6 -9 -14 -9 -8 0 -23 -13 -33 -30 -15
-25 -34 -35 -138 -69 -66 -22 -145 -45 -175 -51 -123 -27 -164 -80 -224 -287
-14 -50 -26 -112 -26 -137 l0 -46 836 0 836 0 -4 52 c-7 67 -78 250 -129 329
-47 73 -70 84 -276 140 -158 42 -174 53 -194 124 -10 37 -9 40 20 65 22 18 32
37 37 68 4 23 7 42 8 42 17 7 1636 204 1636 200 0 -3 -16 -53 -35 -110 -19
-57 -34 -105 -32 -106 1 -1 220 -30 486 -64 l483 -60 73 -66 c210 -191 499
-314 738 -314 31 0 57 -2 57 -5 0 -3 -33 -40 -72 -81 -40 -42 -78 -91 -85
-111 -28 -77 -15 -283 32 -523 8 -41 22 -113 31 -160 9 -47 33 -139 54 -205
67 -210 76 -298 33 -349 -29 -35 -81 -143 -94 -196 -4 -19 -21 -83 -38 -142
-16 -59 -32 -125 -36 -147 l-7 -41 615 0 615 0 10 48 c19 88 34 278 27 343
-18 174 -3 227 118 429 34 59 93 173 131 255 38 83 105 223 149 312 l80 163 8
104 c4 57 12 137 18 178 6 40 12 99 15 131 2 32 6 60 8 63 3 2 344 -38 759
-90 415 -52 755 -93 755 -93 1 1 -16 58 -37 127 -146 468 -244 892 -285 1230
-27 218 -24 589 5 779 37 242 80 395 231 811 178 494 220 661 254 1005 23 236
29 375 17 375 -7 0 -11 -30 -11 -84 l0 -84 -96 -32 c-52 -18 -94 -34 -91 -36
2 -2 43 10 92 26 49 16 89 29 90 27 4 -4 -10 -166 -15 -170 -7 -7 -254 -85
-258 -82 -2 2 2 40 9 84 11 78 13 83 43 96 l31 14 -31 -6 -31 -5 8 54 c10 73
11 108 1 108 -5 0 -10 -25 -11 -56 -1 -31 -3 -60 -6 -63 -2 -4 -6 -36 -10 -71
-6 -64 -23 -161 -28 -166 -6 -5 -248 -76 -251 -73 -1 2 6 40 17 85 l18 80 115
38 c64 21 114 40 111 42 -2 2 -50 -12 -107 -31 -58 -19 -107 -34 -110 -33 -3
2 1 37 8 79 l14 76 40 12 c22 7 38 14 36 17 -3 2 -25 -3 -49 -11 -34 -12 -45
-21 -46 -38 -1 -12 -7 -50 -13 -84 l-12 -62 -110 -37 c-60 -20 -111 -34 -114
-31 -3 2 2 36 11 75 13 54 21 73 36 77 11 4 19 9 16 11 -2 2 -32 -6 -66 -17
-34 -12 -60 -23 -58 -25 2 -3 16 0 31 6 15 5 31 10 36 10 11 0 -19 -132 -34
-146 -9 -10 -190 -74 -207 -74 -3 0 3 34 15 75 l21 75 63 21 c35 12 61 23 59
25 -2 2 -38 -8 -81 -23 -42 -15 -72 -30 -66 -33 6 -4 2 -32 -12 -78 -20 -69
-23 -73 -60 -84 -21 -6 -36 -13 -34 -16 3 -2 19 0 35 6 17 6 31 8 30 4 0 -4
-12 -40 -27 -81 -27 -73 -28 -75 -77 -93 -46 -17 -34 -18 23 -2 22 6 22 4 -13
-77 -19 -45 -38 -86 -42 -89 -5 -4 -54 -20 -110 -35 -57 -16 -101 -30 -99 -33
3 -2 45 8 95 22 49 14 95 26 100 26 6 0 -10 -42 -35 -93 l-47 -94 -111 -26
c-61 -15 -114 -27 -118 -27 -4 0 14 37 39 83 49 87 104 195 126 250 12 28 23
36 76 52 33 10 59 20 57 23 -3 2 -26 -3 -52 -12 -26 -9 -49 -14 -51 -12 -4 3
25 80 52 141 14 31 65 173 65 181 0 2 -4 4 -10 4 -5 0 -10 -8 -10 -19 0 -37
-48 -146 -65 -150 -14 -2 -15 -5 -5 -11 11 -7 7 -24 -17 -81 -30 -70 -33 -74
-79 -90 -27 -10 -44 -18 -37 -18 6 -1 24 4 39 9 15 6 28 9 30 7 2 -2 -12 -40
-33 -85 -35 -79 -38 -82 -82 -96 -45 -15 -45 -15 -7 -9 l39 6 -49 -91 -48 -91
-104 -26 c-58 -14 -107 -24 -109 -21 -3 3 18 43 46 89 l51 85 67 18 c36 10 62
19 57 21 -6 2 -32 -3 -59 -11 -27 -9 -51 -14 -52 -12 -5 5 79 160 89 164 4 2
8 10 8 18 0 17 62 148 73 152 4 2 7 10 7 18 0 8 13 46 30 85 16 38 26 69 22
69 -5 0 -14 -17 -21 -37 -19 -53 -60 -145 -101 -227 -29 -58 -41 -72 -70 -83
l-35 -13 34 6 34 6 -44 -82 c-25 -46 -52 -85 -62 -88 -11 -3 -14 -8 -8 -11 6
-4 -10 -40 -41 -93 l-52 -86 -100 -26 c-55 -13 -102 -23 -104 -22 -2 2 21 42
51 88 43 66 62 87 88 96 29 10 29 11 6 6 -34 -6 -35 -10 23 89 25 42 52 77 60
78 8 0 10 3 4 5 -15 6 67 164 86 165 10 0 11 2 3 6 -9 3 -8 14 6 41 34 66 50
112 40 112 -5 0 -9 -5 -9 -12 0 -21 -63 -148 -73 -148 -6 0 -7 -3 -4 -7 4 -3
-12 -41 -34 -83 -33 -61 -48 -80 -73 -89 -31 -11 -31 -11 -2 -5 28 5 29 4 14
-18 -8 -13 -31 -51 -52 -85 -22 -37 -44 -63 -54 -63 -12 0 -13 -3 -5 -8 15 -9
-86 -173 -114 -183 -10 -4 -13 -8 -6 -8 7 -1 -15 -44 -49 -96 l-62 -94 -94
-22 c-51 -11 -95 -19 -98 -17 -4 4 76 125 114 173 9 11 25 20 35 19 13 -2 14
-1 2 3 -20 6 -21 4 40 96 35 53 59 79 80 86 18 6 21 9 7 7 -28 -5 -29 -9 32
87 27 42 57 77 65 77 11 0 12 3 4 8 -8 5 -4 21 18 55 53 86 147 265 135 261
-6 -3 -26 -35 -43 -72 -18 -37 -51 -98 -73 -137 -22 -38 -45 -80 -52 -92 -6
-13 -18 -23 -25 -23 -8 0 -11 -4 -8 -10 3 -5 -17 -46 -45 -90 -37 -57 -58 -80
-73 -81 -17 -1 -18 -2 -5 -6 14 -4 8 -19 -39 -89 -31 -46 -60 -84 -65 -84 -4
0 -8 -5 -8 -11 0 -6 -27 -50 -61 -99 l-60 -89 -88 -20 c-49 -12 -92 -21 -96
-21 -4 0 14 29 40 65 25 36 44 65 41 65 -2 0 -27 -30 -54 -68 l-49 -67 -86
-21 c-48 -12 -87 -20 -87 -17 0 2 7 15 16 28 13 20 25 25 61 25 l45 0 -4 56
c-3 62 -2 64 62 83 l35 10 -40 -6 -40 -6 28 36 c15 21 39 53 53 72 15 19 24
35 21 35 -2 0 -30 -34 -61 -75 -31 -41 -60 -75 -65 -75 -5 0 -18 23 -30 51
-22 54 -18 73 17 82 9 2 3 3 -14 0 -28 -3 -32 1 -54 49 -14 29 -35 67 -48 85
-13 18 -21 36 -18 41 3 6 -2 9 -12 8 -9 0 -16 5 -14 12 1 8 -2 11 -7 7 -6 -3
-32 3 -58 13 -51 21 -75 28 -216 63 -97 24 -128 50 -142 116 -5 27 -2 36 24
60 35 31 43 74 57 273 4 64 13 117 22 135 23 44 22 176 -2 240 -62 164 -174
232 -366 223 -156 -8 -253 -66 -308 -187 -33 -72 -43 -221 -19 -279 10 -23 18
-81 21 -152 2 -63 10 -141 17 -173 11 -51 17 -63 55 -90 32 -24 43 -39 44 -59
0 -18 -4 -26 -12 -23 -7 3 -22 -10 -34 -28 -19 -28 -37 -37 -150 -74 -71 -23
-147 -45 -169 -49 -111 -18 -165 -89 -220 -285 -14 -48 -25 -111 -25 -138 l0
-51 328 0 c180 -1 436 0 570 0 185 0 242 -2 242 -12 0 -9 3 -9 12 0 17 17 132
16 122 0 -6 -10 -4 -10 8 0 11 8 38 12 78 10 l63 -3 -40 -50 c-36 -46 -45 -51
-102 -63 -34 -7 -69 -16 -78 -19 -12 -5 -14 -3 -8 8 7 11 5 11 -10 -1 -10 -8
-48 -23 -84 -32 -61 -16 -44 -17 32 -1 30 6 31 5 17 -13 -11 -15 -9 -15 10 3
14 12 53 28 86 37 85 22 90 21 69 -11 -14 -25 -13 -24 12 4 22 26 42 35 101
49 40 9 76 14 78 11 3 -3 -17 -36 -43 -74 -57 -79 -66 -93 -60 -93 2 0 32 40
67 89 l62 90 86 20 c47 11 87 19 89 17 1 -1 -27 -45 -62 -97 l-66 -94 -152
-32 c-83 -17 -165 -34 -181 -37 l-28 -6 16 28 17 27 -24 -28 c-22 -26 -105
-56 -160 -57 -17 0 -17 2 3 33 22 32 22 32 0 8 -11 -13 -24 -30 -28 -36 -7
-12 -152 -48 -152 -38 0 3 9 19 21 36 l21 32 -22 -24 c-11 -13 -24 -31 -29
-39 -4 -7 -37 -20 -72 -28 -83 -17 -84 -17 -68 4 9 11 5 9 -11 -4 -19 -17 -85
-34 -275 -74 -137 -29 -252 -54 -254 -56 -7 -6 20 -4 64 5 22 5 127 27 234 50
107 23 196 39 199 36 3 -3 10 -1 16 4 9 7 197 49 301 67 11 2 49 10 85 18 93
22 96 21 75 -11 -10 -16 -25 -38 -33 -50 -8 -13 -12 -23 -10 -23 3 0 22 25 42
55 20 30 38 55 39 55 2 0 82 16 177 35 95 19 174 34 176 32 1 -1 -26 -47 -61
-102 l-62 -100 -84 -17 c-46 -9 -86 -14 -88 -12 -2 2 22 44 53 94 31 51 53 89
48 86 -5 -3 -33 -45 -62 -93 -29 -48 -54 -89 -56 -91 -2 -4 -644 -121 -653
-120 -3 1 -13 -1 -21 -5 -37 -13 -120 -24 -120 -14 0 5 -6 5 -14 -2 -12 -10
-115 -33 -246 -55 -124 -21 -441 -84 -425 -85 19 -1 176 26 290 49 28 6 64 12
80 14 17 3 52 9 79 16 27 6 55 9 62 6 8 -3 16 -1 19 3 3 5 29 12 58 16 28 4
61 9 72 11 124 26 139 28 131 16 -4 -7 -99 -34 -131 -37 -12 -2 -188 -87 -195
-95 -3 -3 -21 -17 -40 -30 -19 -13 -47 -34 -61 -47 -32 -29 -51 -34 -299 -73
-106 -16 -195 -32 -198 -35 -7 -7 19 -4 227 29 90 15 166 24 169 21 2 -2 13 0
24 6 18 10 18 8 -3 -20 -12 -17 -26 -31 -30 -31 -3 0 -28 -34 -55 -75 -42 -64
-53 -75 -79 -76 -68 -4 -359 -40 -364 -45 -7 -7 38 -4 134 6 50 6 113 13 140
15 28 3 63 8 79 11 25 6 28 4 21 -12 -4 -11 -22 -56 -40 -102 -17 -45 -34 -84
-36 -86 -4 -4 -102 -12 -271 -22 -95 -6 -108 -5 -108 9 0 30 -15 25 -16 -5
l-1 -29 61 5 c172 16 329 26 333 22 3 -2 0 -14 -7 -25 -6 -12 -13 -59 -17
-104 -3 -45 -6 -83 -7 -83 0 -1 -45 -4 -100 -6 l-98 -5 -18 40 c-10 21 -19 35
-21 29 -6 -15 -279 -25 -279 -9 0 8 -3 9 -8 1 -4 -7 -55 -13 -125 -16 -101 -5
-119 -3 -127 11 -8 14 -9 14 -10 -1 0 -15 -10 -18 -64 -18 -53 0 -65 3 -69 18
-4 16 -5 16 -6 0 -1 -15 -11 -18 -61 -18 -33 0 -63 1 -67 2 -5 1 -24 57 -44
125 l-36 123 68 0 67 0 16 -42 c9 -24 14 -31 11 -16 -3 14 -8 33 -11 42 -5 14
4 16 60 16 46 0 66 -4 66 -12 0 -10 3 -9 9 1 7 10 22 12 62 7 30 -3 149 -7
265 -9 206 -2 211 -2 206 18 -3 11 -7 14 -10 7 -5 -17 -162 -17 -162 1 0 9 -3
8 -9 -2 -7 -11 -28 -12 -102 -6 -52 3 -162 6 -245 6 l-150 -1 -11 28 -12 27 6
-29 c6 -29 6 -29 -33 -23 -21 4 -87 7 -146 7 l-106 0 -16 43 c-9 23 -14 30
-11 15 3 -14 8 -34 11 -43 6 -14 -3 -16 -71 -13 l-78 3 -39 124 c-22 67 -37
125 -34 128 3 3 36 2 75 -2 l70 -7 17 -50 c9 -27 18 -47 20 -45 2 2 -3 23 -11
47 -8 24 -13 45 -11 47 2 3 35 1 72 -4 l68 -8 40 -113 c21 -62 41 -111 43
-109 2 2 -14 54 -36 116 l-39 111 67 -6 c36 -4 69 -11 72 -17 4 -6 8 -5 10 1
3 7 65 6 189 -4 102 -7 223 -16 270 -19 47 -2 114 -7 149 -11 39 -4 62 -3 58
3 -3 5 -30 10 -59 11 -29 1 -105 7 -168 12 -122 10 -196 15 -350 26 -52 4
-106 7 -120 9 -14 1 -46 3 -72 3 -40 2 -50 6 -63 30 l-15 27 6 -29 c6 -25 4
-28 -10 -23 -10 4 -41 7 -70 7 l-53 0 -22 61 c-13 33 -25 59 -27 56 -2 -2 2
-19 10 -38 32 -78 34 -74 -49 -71 l-74 4 -11 34 c-7 20 -14 33 -16 31 -3 -2 0
-17 6 -32 l11 -28 -113 7 c-62 4 -140 9 -173 12 l-60 6 -39 112 c-21 61 -41
117 -44 124 -4 11 10 13 74 7 44 -4 84 -13 89 -20 6 -7 28 -60 49 -119 22 -58
41 -104 43 -102 2 2 -14 52 -36 112 -23 59 -39 109 -37 111 2 2 37 0 77 -4
l74 -8 35 -82 c19 -45 36 -80 38 -78 2 2 -10 36 -27 76 -17 40 -29 74 -27 77
2 2 36 0 74 -4 l71 -6 22 -55 c12 -29 23 -52 26 -50 2 2 -6 26 -17 52 l-21 48
68 -6 c48 -5 72 -12 82 -24 13 -17 13 -17 7 0 -5 16 -1 17 29 12 19 -3 50 -7
68 -10 25 -4 38 -14 51 -38 15 -29 15 -20 -1 20 -5 14 -1 15 33 10 21 -4 104
-13 184 -22 80 -8 159 -17 175 -20 17 -2 82 -9 145 -16 63 -6 120 -13 125 -16
7 -4 7 -2 0 5 -8 9 -152 29 -335 48 -25 2 -81 9 -125 15 -44 6 -87 11 -95 11
-8 0 -67 7 -130 14 -63 8 -119 14 -126 14 -6 0 -19 18 -29 40 -10 22 -20 38
-22 36 -3 -2 3 -18 12 -36 9 -18 15 -33 13 -35 -2 -1 -32 2 -68 6 -36 5 -96
12 -135 15 -80 7 -101 15 -110 45 -4 11 -9 18 -12 16 -2 -3 1 -15 7 -27 11
-21 11 -21 -62 -14 -40 3 -77 11 -83 16 -5 5 -29 48 -53 96 -50 103 -49 90 2
-21 l36 -78 -72 7 c-40 3 -80 10 -88 14 -15 8 -113 220 -106 228 3 2 39 -2 81
-9 56 -9 80 -17 92 -33 13 -18 15 -18 9 -2 -6 17 -2 18 51 12 97 -11 97 -11
138 -96 21 -44 40 -78 43 -76 2 2 -13 36 -33 76 -20 40 -35 74 -33 76 2 1 35
-2 74 -7 l71 -11 48 -99 c27 -54 51 -97 53 -95 2 2 -17 45 -42 95 -25 50 -46
92 -46 94 0 1 31 -2 70 -7 63 -9 70 -12 81 -38 6 -16 16 -31 21 -34 5 -4 2 8
-7 26 l-17 32 54 -7 c79 -10 84 -12 103 -56 10 -22 23 -42 27 -46 5 -3 0 14
-12 37 -12 23 -20 44 -18 46 2 2 107 -12 233 -32 127 -19 262 -39 300 -44 39
-6 82 -13 98 -16 15 -3 27 -2 27 3 0 5 -8 9 -17 10 -27 1 -242 33 -498 73 -33
5 -80 12 -105 16 -25 3 -49 8 -53 11 -4 3 -38 7 -75 9 -37 2 -68 8 -70 13 -1
4 -10 17 -18 27 -14 18 -14 17 -3 -5 11 -24 11 -24 -27 -18 -22 4 -49 7 -62 7
-13 0 -35 12 -49 28 -23 24 -25 25 -14 4 12 -23 11 -24 -16 -18 -15 3 -50 8
-76 12 -43 6 -50 10 -68 45 -10 22 -22 39 -24 39 -3 0 2 -14 10 -31 9 -17 14
-33 11 -36 -9 -9 -149 15 -156 28 -5 6 -9 7 -11 2 -3 -7 -32 -6 -82 1 l-78 11
-55 104 c-30 57 -53 106 -50 108 2 3 39 -1 81 -8 68 -12 78 -16 91 -41 8 -15
17 -28 20 -28 2 0 0 9 -6 21 -7 11 -10 23 -7 25 2 2 36 -2 76 -9 47 -9 77 -21
86 -33 15 -19 15 -19 8 0 -5 16 -3 18 18 13 13 -3 44 -9 69 -13 25 -4 50 -11
56 -15 6 -5 13 -7 16 -4 10 10 134 -19 146 -34 8 -9 11 -10 7 -3 -3 7 0 12 8
12 28 0 127 -23 127 -29 0 -4 7 -16 16 -27 14 -18 15 -18 4 4 -7 13 -10 25 -8
26 2 2 104 -16 228 -40 370 -70 440 -82 440 -75 0 5 -235 52 -330 66 -19 3
-46 8 -60 11 -14 3 -36 8 -50 10 -14 3 -74 14 -135 25 -60 11 -123 23 -140 25
-98 16 -252 46 -265 51 -8 3 -19 5 -23 4 -5 -1 -37 4 -70 10 -45 8 -68 18 -85
38 -23 25 -23 25 -12 2 12 -23 11 -23 -21 -18 -19 4 -54 9 -77 13 -42 7 -46
10 -104 100 -33 52 -62 94 -65 94 -5 0 -5 0 59 -99 26 -41 46 -77 44 -79 -5
-4 -155 24 -162 31 -11 10 -122 192 -120 195 2 1 77 -13 167 -32 167 -35 166
-34 212 -97 23 -31 10 -3 -16 35 -19 27 -19 28 -1 23 10 -3 45 -11 77 -17 57
-11 59 -13 104 -81 25 -38 48 -69 51 -69 4 0 -9 22 -54 89 -13 19 -22 37 -20
39 5 4 251 -45 276 -55 8 -3 18 -5 22 -5 4 1 71 -12 148 -29 78 -17 146 -28
153 -25 7 2 0 5 -14 5 -14 1 -29 4 -32 8 -4 3 -17 7 -30 9 -31 3 -369 74 -387
81 -8 4 -18 5 -22 5 -17 -4 -130 28 -145 40 -14 11 -15 11 -9 -1 6 -10 4 -12
-10 -8 -11 3 -45 11 -76 17 -32 6 -60 15 -63 20 -3 5 -11 7 -18 4 -21 -8 -150
23 -158 39 -5 7 -18 25 -29 38 l-22 24 21 -32 c12 -17 21 -33 21 -35 0 -3 -36
2 -81 11 -78 15 -82 17 -110 58 -17 24 -32 43 -35 43 -3 0 7 -17 20 -37 14
-20 24 -38 22 -40 -1 -2 -40 5 -86 14 -81 17 -85 20 -114 62 -51 73 -70 90
-26 24 22 -35 37 -63 33 -63 -17 1 -184 38 -187 41 -10 13 -126 189 -126 192
0 2 39 -4 88 -15 76 -17 91 -24 121 -56 32 -36 33 -36 11 -4 -12 17 -19 32
-16 32 2 0 42 -9 88 -20 84 -20 88 -22 146 -96 13 -16 9 -8 -8 19 -36 55 -34
56 68 30 37 -9 74 -24 82 -33 8 -9 11 -10 6 -3 -11 18 0 17 97 -7 45 -10 113
-26 150 -35 45 -10 76 -23 88 -38 l20 -22 -13 25 c-16 31 -39 49 -54 43 -6 -2
-40 3 -75 12 -35 8 -75 18 -89 20 -66 13 -126 27 -140 32 -8 3 -24 7 -35 9
-51 7 -147 34 -159 43 -7 6 -15 8 -19 5 -3 -3 -42 2 -86 11 l-79 18 -51 71
-51 71 57 3 c80 4 94 -1 130 -55 18 -27 44 -61 59 -78 l26 -30 -26 38 c-14 20
-38 53 -52 72 -14 19 -23 39 -19 45 3 5 30 10 59 10 39 0 57 -5 70 -19 13 -15
14 -20 4 -24 -10 -4 -10 -6 1 -6 8 -1 23 -9 34 -18 11 -10 17 -13 14 -6 -4 6
-1 14 5 16 9 4 7 6 -3 6 -16 1 -49 31 -49 44 0 4 26 7 57 7 39 0 63 -5 77 -17
20 -17 20 -17 7 0 -12 16 -9 17 44 17 41 0 65 -5 79 -17 20 -17 20 -17 7 0
-12 16 -9 17 40 17 41 0 59 -5 78 -22 14 -13 19 -15 12 -6 -11 15 -11 19 0 23
8 2 100 4 206 2 121 -1 189 1 183 8 -6 5 -10 24 -10 42 0 34 -61 206 -100 283
-57 113 -89 134 -267 180 -205 54 -212 58 -234 135 -11 38 -10 41 19 65 36 30
47 82 58 265 4 70 12 123 22 145 12 24 17 61 17 120 -1 74 -5 94 -32 151 -59
127 -153 189 -296 195 -45 2 -102 -1 -127 -6z m-2322 -435 c3 -3 31 -169 28
-172 -1 -1 -60 17 -133 39 l-131 41 -6 51 c-3 28 -6 68 -6 88 l0 37 123 -41
c67 -23 123 -42 125 -43z m283 -170 c10 -44 16 -81 14 -83 -2 -2 -59 14 -127
35 l-123 39 -12 64 c-22 120 -31 115 109 67 l122 -42 17 -80z m-380 25 l127
-40 11 -50 c6 -27 14 -68 17 -91 l7 -41 -29 6 c-16 4 -78 21 -139 39 l-110 32
-6 50 c-15 109 -17 135 -12 135 3 0 63 -18 134 -40z m283 -88 l119 -38 23 -85
c13 -46 24 -87 24 -90 0 -7 -38 3 -187 47 l-81 24 -11 50 c-19 88 -24 130 -15
130 5 0 63 -17 128 -38z m305 -95 l75 -23 28 -84 c15 -46 26 -85 24 -87 -3 -4
-232 56 -244 62 -3 2 -51 167 -52 177 0 7 16 3 169 -45z m-549 -18 c63 -18
118 -35 123 -39 8 -7 59 -191 54 -196 -6 -6 -282 70 -289 80 -6 9 -38 168 -38
189 0 5 8 6 18 3 9 -3 69 -19 132 -37z m8935 -134 l-16 -74 -116 -36 c-63 -20
-117 -34 -120 -32 -5 6 33 146 42 156 13 13 220 78 223 69 2 -5 -4 -42 -13
-83z m-8656 54 c58 -16 114 -32 123 -35 11 -3 28 -38 47 -97 17 -51 31 -95 31
-98 0 -5 -267 59 -278 67 -4 2 -52 175 -52 186 0 13 16 10 129 -23z m9187 -21
c-4 -29 -9 -71 -12 -94 l-6 -40 -140 -41 -140 -40 6 26 c3 14 11 56 18 94 12
65 13 68 48 77 19 6 76 23 125 40 50 16 94 29 99 30 5 0 6 -24 2 -52z m-8903
-60 c62 -17 117 -36 123 -42 13 -12 85 -178 80 -183 -7 -8 -252 62 -263 75
-11 14 -63 157 -63 175 0 10 0 10 123 -25z m8122 -44 c-13 -42 -25 -78 -28
-80 -7 -7 -221 -74 -224 -70 -2 1 10 38 26 81 l29 79 93 32 c136 47 132 49
104 -42z m501 49 c-2 -10 -10 -45 -16 -78 -7 -33 -16 -66 -20 -74 -6 -11 -260
-94 -267 -88 -1 1 10 43 24 92 l25 90 117 37 c136 43 144 44 137 21z m-9141
-59 l140 -36 37 -106 c21 -58 37 -107 35 -108 -3 -3 -300 65 -305 71 -4 4 -43
135 -56 188 -3 15 -3 27 1 27 4 0 71 -16 148 -36z m903 -59 c3 -3 25 -45 48
-95 l43 -90 -27 7 c-15 3 -72 18 -127 32 l-99 26 -37 85 c-21 47 -38 90 -38
96 -1 10 224 -47 237 -61z m7940 -49 l-23 -79 -115 -33 c-63 -19 -120 -34
-127 -34 -7 0 -1 31 18 88 l29 87 118 35 c71 22 118 32 120 25 1 -5 -8 -46
-20 -89z m544 -8 c-23 -129 -12 -119 -163 -157 -74 -19 -139 -36 -146 -38 -7
-3 -2 32 15 94 14 54 27 100 28 102 3 4 254 79 270 80 8 1 7 -23 -4 -81z
m-9082 37 c73 -19 136 -38 140 -42 14 -14 89 -203 81 -203 -28 0 -278 64 -287
73 -11 12 -74 179 -74 198 0 12 -13 14 140 -26z m8274 -99 l-28 -86 -51 -14
c-27 -8 -82 -24 -121 -34 l-71 -20 35 88 35 88 111 34 c61 19 113 34 114 32 2
-1 -9 -41 -24 -88z m-7973 22 l127 -32 51 -104 52 -104 -33 7 c-18 4 -82 18
-142 32 l-108 25 -25 57 c-43 97 -63 151 -55 151 4 0 64 -14 133 -32z m8472
-60 c-13 -51 -28 -96 -31 -99 -15 -14 -284 -77 -279 -66 2 7 16 48 32 92 16
44 32 84 36 88 8 10 224 75 251 76 15 1 14 -8 -9 -91z m-8809 -166 c26 -63 46
-116 44 -118 -2 -2 -75 12 -163 30 l-159 32 -38 114 c-21 63 -38 117 -38 120
0 4 69 -9 154 -29 l154 -35 46 -114z m627 153 l106 -27 51 -96 c29 -52 50 -97
47 -100 -5 -5 -233 45 -248 55 -10 6 -97 184 -97 197 0 4 8 5 18 2 9 -3 65
-17 123 -31z m7888 -62 c-16 -48 -35 -93 -42 -99 -10 -9 -237 -74 -259 -74 -3
0 13 43 36 96 l42 97 114 33 c63 18 120 33 127 33 8 1 1 -30 -18 -86z m-7118
27 c12 0 11 -11 -1 -30 -9 -13 -12 -12 -25 4 -19 26 -19 40 1 32 9 -3 20 -6
25 -6z m7688 -7 c0 -10 -12 -58 -27 -108 l-27 -90 -126 -31 c-70 -17 -140 -34
-157 -37 l-29 -6 37 107 38 107 133 37 c157 43 159 43 158 21z m-8205 -22
l108 -29 55 -92 c29 -51 52 -95 49 -98 -4 -4 -156 27 -218 44 -14 4 -118 178
-118 198 0 9 4 8 124 -23z m-749 -17 c66 -14 126 -30 133 -34 10 -5 112 -209
112 -224 0 -6 -295 56 -303 63 -7 7 -97 217 -97 228 0 2 8 2 18 -1 9 -2 71
-17 137 -32z m8135 19 c0 -5 -16 -47 -36 -94 l-36 -85 -124 -31 c-68 -17 -124
-29 -124 -28 0 3 82 179 85 183 4 5 200 60 218 61 9 0 17 -2 17 -6z m-7036
-95 c16 -18 106 -170 106 -179 0 -5 -8 -8 -17 -5 -10 3 -59 15 -110 26 l-92
22 -53 91 c-29 50 -54 94 -56 98 -3 7 216 -45 222 -53z m7508 -55 l-38 -108
-143 -33 c-79 -18 -146 -30 -148 -28 -3 3 73 193 81 203 3 3 260 72 273 72 8
1 -1 -37 -25 -106z m-8120 -58 c26 -50 47 -93 48 -97 0 -4 -9 -12 -19 -18 -14
-7 -46 -4 -118 10 -54 11 -106 23 -116 26 -14 5 -117 200 -117 224 0 4 62 -7
138 -24 l137 -31 47 -90z m734 82 c2 -2 -2 -28 -9 -57 l-14 -52 -41 67 c-23
36 -42 68 -42 70 0 4 100 -22 106 -28z m-616 -32 l116 -26 32 -58 32 -58 -83
1 c-45 0 -97 -1 -115 -4 -32 -5 -33 -4 -83 89 -40 73 -47 92 -32 88 10 -3 70
-17 133 -32z m7730 29 c0 -10 -83 -204 -87 -204 -3 0 -64 -14 -135 -30 -72
-17 -133 -28 -135 -26 -2 2 18 49 46 104 l50 99 118 31 c125 32 143 35 143 26z
m-8559 -70 c75 -14 141 -29 146 -33 12 -8 113 -251 105 -251 -4 0 -80 12 -169
27 l-162 27 -45 125 c-25 69 -46 130 -46 134 0 5 8 6 18 3 9 -3 78 -17 153
-32z m1098 -20 l110 -25 60 -102 c32 -56 58 -103 56 -105 -2 -2 -31 2 -66 9
-49 10 -68 19 -91 44 -15 18 -53 45 -83 61 -44 23 -62 40 -86 80 -16 28 -29
54 -29 58 0 10 12 8 129 -20z m7132 -76 l-47 -102 -132 -32 c-73 -17 -132 -28
-131 -25 0 3 24 49 52 101 l52 95 115 32 c63 17 120 32 127 32 7 1 -9 -43 -36
-101z m848 -20 c-22 -62 -43 -116 -47 -120 -7 -6 -314 -70 -318 -65 -1 1 19
54 45 117 l48 115 134 32 c199 47 186 54 138 -79z m-8735 46 l138 -27 44 -94
c38 -82 42 -97 32 -119 -11 -24 -15 -25 -63 -19 -27 3 -88 14 -134 23 l-84 17
-53 128 c-42 101 -50 127 -36 123 9 -3 79 -17 156 -32z m1009 -7 l99 -23 63
-99 c34 -55 59 -101 54 -103 -12 -5 -212 37 -221 46 -9 9 -118 192 -118 198 0
7 25 4 123 -19z m6611 -74 c-26 -49 -52 -94 -59 -101 -13 -14 -210 -65 -231
-60 -8 2 10 40 44 98 l57 94 105 27 c58 15 111 28 118 28 8 1 -6 -34 -34 -86z
m779 -30 c-25 -60 -47 -113 -49 -118 -4 -9 -305 -78 -311 -72 -1 1 21 49 48
107 27 58 50 109 52 113 2 7 257 73 294 76 7 1 -7 -45 -34 -106z m-7082 66
c10 -20 9 -21 -32 -14 -24 4 -61 13 -84 20 l-40 13 72 1 c64 1 74 -1 84 -20z
m198 -25 l32 -46 -41 7 c-93 16 -163 40 -178 63 l-14 22 84 0 84 0 33 -46z
m185 -20 c26 -36 46 -68 43 -70 -2 -2 -44 5 -93 17 -93 21 -93 21 -147 106 -6
10 10 13 71 13 l78 0 48 -66z m-1419 34 c36 -6 65 -14 65 -18 0 -3 -14 -14
-30 -24 -17 -10 -42 -35 -57 -57 -14 -22 -27 -38 -29 -37 -1 2 -18 38 -38 82
l-36 79 30 -7 c17 -3 59 -11 95 -18z m968 -7 c49 -10 90 -21 92 -23 15 -16
124 -193 121 -196 -3 -2 -51 6 -108 18 l-103 22 -37 62 c-21 33 -49 81 -64
105 -23 38 -24 42 -8 37 11 -3 59 -14 107 -25z m6107 -91 c-29 -50 -62 -96
-74 -101 -18 -7 -196 -49 -211 -49 -2 0 24 44 58 97 l63 97 104 26 c58 15 107
26 109 24 2 -2 -20 -44 -49 -94z m761 58 c-5 -13 -27 -60 -49 -106 -23 -46
-42 -88 -44 -93 -3 -10 -278 -72 -286 -65 -2 2 21 52 51 112 l54 108 139 32
c76 18 140 33 141 33 1 1 -1 -9 -6 -21z m-6557 -40 c11 -13 126 -188 126 -191
0 -2 -45 5 -100 16 l-100 20 -52 81 c-28 45 -57 90 -65 102 l-13 21 101 -23
c55 -12 102 -24 103 -26z m5551 -81 l-58 -94 -100 -22 c-54 -12 -101 -20 -104
-18 -2 3 22 46 56 95 l60 89 98 25 c54 14 100 24 102 22 2 -2 -23 -45 -54 -97z
m715 71 c0 -2 -26 -52 -58 -113 l-57 -110 -130 -27 c-71 -14 -131 -25 -132
-24 -3 3 106 199 116 209 10 10 261 72 261 65z m-8056 -63 c77 -14 142 -25
146 -25 7 0 17 -25 79 -197 26 -75 27 -83 11 -83 -18 0 -271 37 -306 45 -17 4
-29 30 -63 137 -24 72 -45 138 -48 145 -4 10 1 13 18 9 13 -3 87 -17 163 -31z
m1231 2 c10 -13 123 -223 121 -224 -1 -2 -47 5 -102 15 l-99 18 -7 62 c-4 33
-16 82 -27 108 -12 26 -21 48 -21 49 0 3 133 -24 135 -28z m7685 21 c0 -2 -22
-61 -49 -133 l-49 -130 -162 -29 c-88 -15 -163 -26 -166 -24 -4 5 75 205 94
238 6 9 64 26 163 46 170 35 169 35 169 32z m-7442 -72 c16 -9 125 -206 118
-213 -4 -5 -166 21 -208 33 -13 4 -100 149 -136 225 -3 8 210 -35 226 -45z
m6262 -28 c-23 -40 -48 -87 -57 -104 l-15 -31 -50 33 c-27 18 -64 36 -83 40
-40 7 -41 11 -18 53 16 27 28 33 118 55 157 38 153 39 105 -46z m-7441 27
c147 -26 131 -14 124 -105 -5 -63 -2 -89 12 -125 9 -26 15 -49 12 -52 -3 -2
-43 1 -88 9 -78 12 -83 15 -92 43 -5 17 -27 77 -48 134 -22 58 -39 106 -39
108 0 6 35 3 119 -12z m1423 -57 c19 -29 118 -196 118 -201 0 -4 -213 32 -216
36 -14 23 -124 218 -124 221 0 9 214 -44 222 -56z m6848 57 c0 -4 -100 -247
-104 -252 -3 -4 -299 -54 -306 -51 -5 2 17 57 47 124 l54 121 147 30 c170 36
162 35 162 28z m-1067 -44 c-18 -30 -20 -31 -89 -31 -39 0 -87 -3 -105 -6 -29
-6 -32 -4 -21 7 10 12 221 70 230 64 1 -1 -5 -16 -15 -34z m-5653 -26 c53 -11
80 -22 93 -37 22 -27 119 -189 115 -192 -2 -1 -48 6 -103 16 l-100 19 -37 67
c-21 37 -49 86 -64 110 l-26 43 24 -6 c13 -3 57 -12 98 -20z m5418 -7 c-3 -7
-24 -23 -49 -36 -58 -30 -114 -86 -139 -138 -19 -38 -25 -42 -77 -53 -31 -6
-60 -11 -64 -11 -9 0 92 163 116 189 7 7 55 23 106 36 116 28 112 28 107 13z
m972 8 c0 -6 -103 -231 -109 -238 -6 -7 -284 -58 -289 -53 -2 1 24 56 56 121
l60 119 128 26 c136 28 154 31 154 25z m-6183 -43 l84 -18 61 -98 c33 -54 58
-100 55 -103 -3 -3 -45 2 -94 11 l-88 16 -62 105 c-34 57 -57 104 -51 104 6 0
48 -8 95 -17z m4922 -111 l-64 -99 -100 -21 c-55 -11 -101 -20 -102 -18 -2 2
115 178 127 190 8 8 192 55 199 50 2 -2 -25 -47 -60 -102z m899 -24 c-54 -105
-66 -123 -87 -123 -20 0 -26 7 -36 47 -6 26 -26 70 -42 97 l-31 49 107 22 c58
12 111 23 116 25 34 12 30 -6 -27 -117z m-5595 88 c51 -11 52 -12 114 -110 35
-55 62 -101 60 -102 -1 -1 -41 5 -89 14 l-88 17 -60 98 c-33 54 -60 100 -60
103 0 5 37 -1 123 -20z m-1019 -12 c50 -9 96 -21 102 -26 12 -9 118 -239 112
-242 -2 -2 -59 7 -127 18 l-125 21 -42 97 c-39 92 -48 148 -22 148 6 0 51 -7
102 -16z m5496 -99 c-39 -59 -71 -97 -84 -100 -12 -3 -52 -12 -90 -20 -38 -8
-71 -13 -73 -11 -3 3 24 47 60 98 l65 93 89 21 c48 11 90 19 92 17 2 -1 -24
-46 -59 -98z m-296 55 c-15 -25 -29 -32 -88 -45 -39 -9 -79 -18 -89 -21 -14
-4 -9 7 19 45 l38 51 69 0 68 0 -17 -30z m-4959 0 c75 -14 113 -25 120 -37 20
-33 104 -217 100 -221 -9 -9 -235 31 -235 42 0 6 -25 62 -55 124 -29 61 -51
112 -46 112 4 0 56 -9 116 -20z m7305 3 c-1 -28 -90 -277 -101 -283 -18 -9
-319 -54 -325 -48 -4 5 51 170 80 240 13 29 23 38 48 43 18 3 89 16 158 29 69
13 128 24 133 25 4 0 7 -2 7 -6z m-8722 -37 c88 -13 165 -27 170 -30 10 -6 33
-89 61 -218 17 -81 18 -88 3 -88 -22 0 -268 28 -308 35 -30 5 -32 9 -39 61 -4
31 -18 100 -31 155 -25 106 -26 109 -21 109 2 0 76 -11 165 -24z m1091 -74
l30 -72 -27 0 c-15 0 -38 3 -51 7 -22 6 -23 9 -18 68 5 67 14 92 28 78 4 -4
22 -41 38 -81z m578 63 l92 -17 23 -42 c40 -72 92 -185 87 -190 -2 -2 -50 4
-107 13 l-102 16 -60 123 c-45 92 -55 122 -42 118 9 -3 58 -12 109 -21z m6652
-142 c-27 -71 -49 -133 -49 -139 0 -6 -62 -20 -147 -33 -169 -24 -173 -25
-173 -11 0 14 90 243 99 253 8 8 248 54 292 56 l26 1 -48 -127z m-7975 101
c11 -4 16 -19 16 -53 0 -25 7 -86 15 -136 8 -49 15 -95 15 -102 0 -8 -17 -10
-57 -6 -32 3 -59 7 -61 8 -2 2 -14 50 -27 107 -13 56 -31 125 -39 152 l-15 49
69 -7 c37 -3 75 -9 84 -12z m1551 1 c50 -10 85 -22 93 -32 32 -43 112 -213
100 -213 -20 0 -190 29 -194 33 -2 2 -28 54 -59 115 -62 127 -66 121 60 97z
m5064 -37 c-5 -18 -9 -53 -9 -78 -1 -81 -14 -92 -132 -115 -56 -12 -104 -17
-106 -13 -4 10 104 194 120 205 12 7 97 29 125 32 8 1 9 -8 2 -31z m-4850 -2
c40 -8 77 -18 81 -23 4 -4 31 -53 59 -108 35 -67 47 -101 39 -102 -7 -2 -49 3
-93 10 l-80 12 -58 113 c-65 127 -68 121 52 98z m4701 -1 c0 -3 -28 -52 -61
-110 -41 -69 -68 -105 -83 -108 -62 -15 -167 -30 -172 -25 -3 3 22 50 55 104
l59 99 94 22 c108 25 108 25 108 18z m1198 -47 c-11 -29 -34 -89 -51 -133 -17
-44 -31 -81 -31 -82 -1 0 -53 -8 -116 -17 -63 -9 -127 -19 -142 -22 -24 -5
-28 -2 -27 18 0 13 22 72 48 133 l48 110 119 21 c65 12 131 22 146 23 l28 1
-22 -52z m-5679 8 l53 -11 55 -103 c31 -57 53 -105 51 -108 -3 -2 -42 1 -87 8
l-82 13 -60 112 -60 112 38 -6 c21 -4 62 -11 92 -17z m4261 -10 c0 -4 -116
-196 -122 -202 -5 -4 -157 -34 -176 -34 -15 0 12 52 79 151 38 56 39 57 111
72 77 15 108 19 108 13z m1112 -38 c-16 -41 -17 -42 -20 -15 -4 37 4 57 22 57
12 0 12 -6 -2 -42z m-6603 16 c30 -6 32 -11 75 -143 24 -75 42 -138 41 -140
-4 -3 -206 17 -243 25 l-23 5 24 29 c17 20 27 47 31 87 16 142 17 143 41 143
12 0 37 -3 54 -6z m188 -29 c57 -8 105 -15 107 -15 9 0 98 -261 92 -268 -7 -6
-239 19 -248 27 -3 3 -26 68 -51 143 -43 131 -44 138 -23 133 11 -3 67 -12
123 -20z m361 -54 c3 -1 16 -34 62 -158 l38 -103 -27 1 c-14 0 -68 6 -120 12
l-94 12 -39 115 c-22 63 -42 124 -45 136 l-5 20 114 -17 c62 -10 114 -18 116
-18z m146 -21 l88 -12 25 -57 c34 -75 75 -192 71 -197 -2 -2 -51 2 -107 9 -73
8 -106 17 -112 27 -10 20 -89 236 -89 244 0 4 8 5 18 2 9 -2 57 -10 106 -16z
m6815 -72 c-11 -40 -26 -111 -34 -157 -8 -47 -17 -87 -20 -90 -5 -5 -280 -39
-324 -40 -22 -1 -23 2 -16 37 12 65 57 249 65 261 5 10 258 55 331 60 15 1 15
-6 -2 -71z m-1756 -65 l-58 -120 -105 -15 c-58 -9 -107 -14 -109 -12 -2 2 22
54 53 117 l56 115 98 17 c53 9 102 18 107 19 6 2 11 2 13 1 1 -1 -24 -56 -55
-122z m113 110 c9 -12 13 -49 14 -109 l0 -92 -32 -6 c-18 -3 -57 -8 -86 -12
l-52 -7 55 118 c30 65 55 119 55 121 0 12 35 1 46 -13z m-4941 -6 l80 -12 41
-100 c23 -55 45 -111 49 -124 l7 -23 -83 7 c-46 4 -92 11 -103 14 -12 5 -34
48 -66 129 -55 140 -62 129 75 109z m-1910 -42 c71 -9 130 -17 132 -19 5 -4
21 -105 27 -171 l6 -60 -47 -17 c-27 -9 -75 -22 -108 -28 -33 -7 -70 -18 -82
-26 -12 -8 -45 -14 -73 -14 l-50 0 -1 88 c0 48 -2 94 -3 102 -2 8 -6 50 -10
93 l-7 78 43 -5 c24 -4 101 -13 173 -21z m2135 8 c25 -3 50 -10 57 -15 12 -10
107 -227 101 -233 -2 -2 -45 2 -96 8 l-93 12 -45 110 c-25 61 -48 116 -51 124
-5 11 2 13 38 7 24 -4 64 -10 89 -13z m5980 -114 c-17 -68 -34 -137 -38 -154
l-8 -30 -139 -17 c-176 -21 -185 -21 -185 -5 0 21 70 271 78 279 7 7 313 57
320 53 1 -1 -11 -58 -28 -126z m-1560 116 c0 -3 -24 -53 -52 -112 -29 -60 -54
-109 -54 -111 -3 -6 -197 -33 -201 -28 -3 3 21 54 52 115 l57 110 77 14 c82
16 121 20 121 12z m-4240 -29 l74 -12 48 -104 c26 -58 47 -111 47 -118 1 -11
-11 -12 -51 -8 -135 17 -122 10 -153 89 -15 40 -39 93 -52 120 -27 55 -32 53
87 33z m-2069 -10 c38 -4 129 -62 129 -81 0 -27 -81 -96 -134 -115 l-55 -19
-6 47 c-3 26 -10 74 -15 108 -6 33 -10 64 -10 67 0 4 12 5 28 2 15 -2 43 -6
63 -9z m6039 -107 l-59 -116 -58 -7 c-32 -4 -76 -9 -97 -13 l-39 -6 58 109
c32 60 59 110 60 112 3 3 188 39 192 37 1 0 -25 -53 -57 -116z m1488 -4 c-17
-61 -36 -128 -42 -150 l-11 -40 -100 -12 c-153 -17 -146 -18 -130 15 8 15 19
79 25 142 7 63 13 115 13 116 3 2 272 41 274 39 1 0 -12 -50 -29 -110z m-1640
76 c-1 -6 -28 -57 -58 -114 l-55 -105 -48 -5 c-39 -5 -80 3 -106 19 -2 2 18
43 45 92 l47 90 81 15 c103 19 98 19 94 8z m-5150 -45 c63 -8 117 -18 122 -22
4 -5 15 -39 23 -76 l15 -68 -27 6 c-92 22 -235 65 -247 75 -18 15 -29 36 -38
72 -8 32 -11 32 152 13z m4917 -68 c-24 -46 -48 -83 -52 -83 -29 2 -123 30
-123 37 0 5 5 19 11 31 10 21 9 21 -5 3 -8 -10 -17 -23 -18 -28 -2 -6 -34 -6
-83 1 -105 14 -195 14 -275 2 -60 -9 -90 -8 -59 3 12 5 286 56 296 56 2 0 1
-6 -3 -12 -4 -7 1 -6 12 3 10 9 37 19 59 22 22 4 55 10 74 13 32 7 33 6 21
-17 l-11 -24 20 25 c14 18 36 28 78 36 112 22 109 25 58 -68z m-4610 32 c49
-6 91 -13 93 -14 3 -4 57 -219 65 -263 l6 -31 -57 5 c-31 3 -61 11 -67 18 -5
7 -24 33 -42 58 -20 30 -50 55 -82 71 -46 24 -50 29 -61 78 -6 29 -13 63 -17
76 -5 21 -3 22 33 18 22 -3 79 -10 129 -16z m259 -29 c43 -5 82 -13 87 -18 6
-6 49 -156 72 -250 5 -21 2 -23 -42 -23 -27 0 -81 3 -122 6 l-75 7 -33 136
c-18 75 -35 142 -38 149 -4 9 5 11 34 7 21 -3 73 -9 117 -14z m5330 -42 c6
-40 1 -67 -20 -133 l-27 -83 -106 -12 c-139 -15 -134 -15 -126 12 12 36 85
230 89 234 4 4 140 29 172 32 6 1 14 -22 18 -50z m-5081 15 l77 -7 24 -81 c47
-154 56 -189 52 -194 -3 -2 -53 -1 -113 3 l-108 7 -32 122 c-18 66 -36 132
-39 145 -7 22 -5 23 27 18 19 -4 69 -9 112 -13z m4865 -21 c-6 -16 -28 -75
-48 -133 l-38 -105 -63 -7 c-35 -4 -85 -9 -111 -13 l-48 -6 25 68 c13 37 35
95 49 128 l24 60 99 16 c134 23 124 24 111 -8z m-4589 -13 c23 -6 30 -21 63
-121 52 -160 54 -151 -44 -144 -46 4 -92 8 -103 10 -20 4 -29 29 -93 258 -5
18 0 18 73 12 43 -4 90 -11 104 -15z m158 -16 l72 -6 34 -97 c19 -53 38 -111
42 -128 l7 -33 -59 1 c-32 0 -75 3 -96 7 l-39 7 -34 110 c-52 171 -51 159 -23
152 13 -3 56 -9 96 -13z m4203 12 c0 -3 -15 -42 -33 -88 -19 -46 -39 -99 -46
-119 -20 -62 -85 -67 -148 -11 l-42 37 35 81 35 81 72 10 c85 12 127 15 127 9z
m-3938 -44 c10 -11 92 -242 87 -246 -2 -3 -44 -2 -92 2 l-88 7 -43 129 -43
128 86 -7 c47 -4 89 -10 93 -13z m3718 9 c0 -5 -14 -39 -30 -76 l-30 -67 -28
18 c-15 10 -46 29 -69 42 -24 13 -43 27 -43 30 1 25 27 38 92 48 97 15 108 16
108 5z m2227 -6 c-4 -8 -9 -60 -13 -117 -4 -57 -8 -110 -10 -118 -1 -8 -3 -36
-3 -61 l-1 -46 -67 -7 c-38 -3 -119 -9 -180 -12 l-113 -7 0 46 c0 41 29 289
34 295 3 2 302 38 340 41 12 1 16 -4 13 -14z m-2927 -12 c0 -5 -9 -23 -20 -40
-16 -26 -26 -33 -52 -33 -18 0 -50 -3 -72 -7 -38 -6 -38 -6 -27 18 11 23 11
23 -3 5 -9 -11 -16 -23 -16 -27 0 -8 -129 -33 -136 -26 -3 3 -1 15 6 26 6 12
8 21 6 21 -3 0 -12 -13 -20 -29 -13 -25 -22 -29 -78 -35 -35 -4 -76 -10 -93
-12 -29 -5 -29 -5 -10 11 11 8 25 13 32 11 7 -3 13 -1 13 5 0 13 105 61 141
64 15 1 34 7 41 12 7 6 31 14 53 17 22 4 51 10 64 13 21 5 23 3 18 -13 -6 -17
-6 -17 6 -2 7 9 24 18 37 21 42 7 110 7 110 0z m144 -14 c20 -19 -91 -56 -145
-47 -19 3 -19 4 0 33 18 30 20 31 79 25 34 -3 63 -8 66 -11z m356 2 c0 -6 -4
-12 -9 -15 -13 -8 -42 4 -35 15 7 12 44 12 44 0z m941 -76 l44 -29 -45 -7
c-25 -4 -59 -8 -77 -8 l-31 -1 21 65 c21 64 21 64 33 37 6 -15 31 -41 55 -57z
m-1233 64 c9 0 2 -5 -17 -10 -36 -11 -47 -7 -36 11 4 6 14 9 22 6 8 -3 22 -6
31 -7z m2328 -126 c-9 -70 -17 -146 -18 -168 l-3 -40 -65 -6 c-58 -5 -68 -3
-90 17 -29 26 -112 64 -141 64 -11 0 -22 7 -26 16 -5 14 23 203 32 212 4 4
319 39 323 36 2 -1 -3 -60 -12 -131z m-2238 102 c1 -1 -2 -14 -8 -27 l-12 -25
-74 15 c-41 8 -71 18 -67 23 19 18 144 29 161 14z m87 -32 c64 -26 73 -36 57
-60 -6 -9 -25 -6 -77 13 -38 14 -71 27 -73 29 -4 4 17 45 23 45 3 0 34 -12 70
-27z m1815 10 c0 -10 -7 -54 -15 -98 -8 -44 -14 -85 -15 -91 0 -7 -36 -1 -95
14 -80 21 -99 30 -118 56 -29 38 -42 95 -24 101 6 3 66 11 132 19 66 7 123 14
128 15 4 0 7 -7 7 -16z m-7842 0 c-2 -5 -18 -37 -36 -73 l-32 -65 0 73 0 72
36 0 c20 0 34 -3 32 -7z m5755 0 c-7 -2 -19 -2 -25 0 -7 3 -2 5 12 5 14 0 19
-2 13 -5z m427 -92 c105 -63 88 -85 -23 -30 -75 38 -71 35 -64 54 9 21 16 20
87 -24z m-900 24 c0 -2 -24 -17 -52 -31 -29 -15 -65 -35 -80 -46 -16 -11 -34
-16 -40 -12 -7 4 -10 4 -6 0 7 -8 -114 -127 -141 -138 -9 -4 -24 -7 -34 -7
-16 -1 -16 2 3 39 11 22 18 40 15 40 -2 0 -13 -17 -24 -39 -11 -21 -29 -41
-41 -44 -11 -3 -20 -3 -20 0 0 8 84 112 91 113 3 0 27 20 53 46 48 46 81 64
117 64 19 0 19 -2 4 -32 -8 -18 -10 -25 -3 -15 7 10 18 26 24 34 13 19 134 44
134 28z m1830 -10 c0 -8 -4 -14 -10 -12 -5 1 -20 -11 -33 -27 -19 -24 -114
-72 -124 -63 -4 5 18 81 26 90 4 4 37 12 72 16 35 5 65 9 67 10 1 0 2 -6 2
-14z m-1390 -2 c0 -5 -12 -36 -27 -71 -28 -67 -27 -66 -126 -77 -58 -7 -59 -6
-53 17 l6 23 -12 -23 c-12 -24 -22 -27 -105 -37 -33 -3 -53 -2 -53 4 0 6 14
39 31 74 31 62 34 65 81 76 53 12 98 15 98 6 0 -3 -9 -23 -20 -45 -11 -22 -20
-43 -20 -47 1 -4 14 18 31 50 l29 57 70 0 c39 0 70 -3 70 -7z m159 -19 c2 -2
-4 -24 -13 -48 -19 -48 -21 -49 -128 -62 -32 -3 -58 -3 -58 0 0 4 13 35 29 70
l28 63 69 -9 c38 -5 71 -11 73 -14z m1071 9 c0 -5 -6 -28 -14 -52 -15 -51 -25
-56 -179 -95 -75 -19 -87 -20 -83 -7 28 103 38 131 44 132 41 5 210 27 220 28
6 0 12 -2 12 -6z m-5366 -30 c3 -10 12 -70 21 -133 8 -63 18 -130 21 -149 l5
-34 -133 6 c-73 4 -136 7 -140 7 -5 0 -8 5 -8 10 0 6 40 10 100 10 l100 0 0
44 c0 38 -20 102 -75 239 -6 15 -1 17 48 17 44 0 57 -4 61 -17z m4387 -4 c35
-11 72 -27 83 -34 18 -14 18 -14 0 -14 -10 1 -57 -4 -103 -10 -46 -7 -85 -10
-87 -8 -6 5 28 87 36 87 4 0 35 -9 71 -21z m-4187 2 l60 -6 17 -90 c10 -49 21
-121 25 -159 6 -63 5 -69 -10 -63 -10 4 -66 7 -125 7 l-107 0 -18 133 c-9 72
-20 144 -23 160 l-5 27 63 -1 c35 -1 91 -4 123 -8z m3583 -60 c-35 -77 -29
-74 -162 -86 -33 -3 -71 -8 -85 -11 -22 -5 -21 -2 15 30 38 35 226 136 252
136 8 0 0 -25 -20 -69z m1308 -10 c-14 -49 -36 -96 -58 -125 l-36 -46 -22 33
c-13 17 -42 55 -65 82 -39 47 -40 52 -29 80 12 29 17 30 101 41 49 6 99 12
110 13 l22 1 -23 -79z m-4649 53 l61 -5 27 -132 c14 -73 26 -140 26 -149 0
-16 -12 -18 -115 -18 -63 0 -115 4 -115 9 0 5 -11 76 -25 157 -14 81 -25 148
-25 149 0 2 69 -2 166 -11z m283 -20 c7 -6 61 -247 61 -272 0 -22 -1 -22 -102
-16 -57 4 -104 8 -106 10 -2 1 -14 56 -27 121 -13 65 -26 130 -30 146 l-7 27
103 -6 c57 -4 106 -8 108 -10z m4144 -4 c-3 -11 -9 -20 -13 -20 -4 0 -15 9
-25 20 -18 20 -17 20 13 20 25 0 29 -3 25 -20z m-3969 -8 l40 -7 33 -130 c18
-72 33 -133 33 -137 0 -5 -45 -8 -100 -8 -55 0 -100 3 -100 8 0 4 -14 65 -30
136 -17 72 -30 133 -30 138 0 10 99 10 154 0z m3873 -57 c76 -72 75 -87 -1
-25 -27 22 -62 48 -77 57 -34 20 -37 33 -9 33 11 0 50 -29 87 -65z m-3640 40
c7 -4 74 -267 70 -271 -2 -3 -45 -2 -94 2 l-90 7 -34 139 -35 138 91 -6 c49
-4 91 -8 92 -9z m182 -20 c8 -8 81 -234 81 -251 0 -2 -39 -4 -87 -4 l-88 0
-33 123 c-19 67 -36 129 -38 137 -4 13 7 14 75 10 44 -3 84 -9 90 -15z m3262
-2 c27 -16 49 -32 49 -37 0 -6 -50 -176 -54 -183 -1 0 -31 -4 -67 -8 l-66 -7
-21 36 -21 35 29 86 c16 46 31 89 35 95 11 19 67 10 116 -17z m-134 5 c-2 -7
-15 -42 -27 -78 -13 -36 -25 -67 -26 -69 -2 -2 -17 9 -35 23 -17 15 -49 36
-69 46 -30 15 -37 24 -33 39 8 30 23 39 73 44 99 8 122 7 117 -5z m-2986 -4
l36 -6 37 -117 c20 -64 36 -120 36 -126 0 -6 -31 -9 -80 -7 l-80 4 -11 41 c-6
23 -23 81 -39 130 l-28 87 47 0 c25 0 62 -3 82 -6z m2790 -26 c-5 -13 -15 -22
-22 -20 -6 2 -41 6 -76 9 -99 9 -64 24 74 31 30 2 32 0 24 -20z m-201 -10
c-19 -5 -60 -16 -90 -25 -30 -9 -57 -16 -60 -16 -3 0 -28 -24 -57 -52 -33 -34
-58 -71 -69 -103 -18 -49 -19 -50 -62 -54 -43 -3 -44 -3 -38 27 l5 30 -15 -32
c-13 -31 -17 -33 -68 -33 -30 0 -62 -3 -71 -7 -14 -5 -16 -2 -11 18 l6 24 -11
-22 c-10 -18 -21 -23 -53 -23 -23 0 -52 -3 -65 -7 -22 -6 -23 -4 -17 23 l6 29
-16 -28 c-21 -39 -30 -27 -9 12 9 18 20 29 25 26 6 -4 7 1 3 11 -4 11 -3 15 4
11 7 -4 16 6 23 25 6 18 28 52 48 74 31 35 44 42 85 47 45 4 47 3 42 -17 -5
-21 -5 -21 6 1 9 17 24 23 76 29 35 3 66 4 69 2 2 -3 -5 -27 -16 -53 -11 -26
-19 -49 -17 -51 2 -2 15 22 29 55 l25 58 119 12 c66 7 124 14 129 16 6 2 26 3
45 3 l35 0 -35 -10z m655 -48 c61 -47 133 -122 114 -119 -8 1 -21 0 -29 -4 -8
-3 -57 -8 -108 -11 -86 -5 -93 -4 -88 12 36 126 48 162 53 162 3 0 29 -18 58
-40z m2256 -52 c0 -35 2 -70 3 -78 2 -8 7 -70 10 -137 l8 -123 -114 -1 c-62 0
-148 -3 -190 -5 -76 -5 -78 -5 -79 18 -7 238 -8 345 -2 354 7 10 169 26 326
32 l37 2 1 -62z m-2081 10 l23 -33 -31 29 c-34 31 -37 36 -24 36 5 0 19 -15
32 -32z m-1534 -25 c-18 -26 -47 -75 -64 -109 -30 -59 -32 -61 -72 -62 -38 -2
-41 0 -35 21 3 12 24 59 46 104 43 86 42 85 122 91 l38 3 -35 -48z m3229 -82
c0 -71 -2 -128 -4 -126 -2 2 -21 47 -42 100 -21 53 -46 106 -54 118 -23 33
-19 37 43 37 l57 0 0 -129z m-7138 33 c-7 -7 -269 -5 -276 2 -2 2 60 4 139 4
79 0 141 -3 137 -6z m318 -4 c4 -6 -47 -10 -144 -10 -94 0 -151 4 -151 10 0 6
55 10 144 10 86 0 147 -4 151 -10z m-1046 -16 c11 -10 -42 -401 -56 -414 -4
-5 -97 -10 -205 -12 -195 -4 -197 -4 -193 16 2 12 8 44 14 71 18 86 40 217 47
280 3 33 9 64 11 68 5 8 373 0 382 -9z m340 -2 l44 -4 -7 -117 c-11 -194 -18
-266 -28 -276 -5 -6 -90 -11 -194 -13 l-185 -4 5 23 c9 36 24 146 32 219 4 36
8 72 10 80 1 8 3 34 3 58 l1 43 138 -2 c75 -1 157 -5 181 -7z m388 -193 c-3
-105 -8 -193 -10 -196 -3 -3 -83 -7 -178 -10 l-172 -6 6 24 c4 13 12 104 18
202 l12 177 165 0 165 0 -6 -191z m201 182 l122 -1 0 -184 0 -184 -47 -4 c-27
-3 -97 -6 -157 -7 l-109 -2 6 133 c4 73 7 161 7 196 l0 63 28 -5 c15 -2 82 -5
150 -5z m5149 -18 c-2 -16 -15 -82 -28 -149 l-23 -121 -104 -7 c-58 -3 -107
-4 -110 -2 -5 5 45 237 59 273 7 20 17 23 81 26 40 1 86 4 102 5 26 2 28 0 23
-25z m132 -64 c66 -97 74 -118 69 -170 l-3 -34 -117 -3 c-65 -1 -118 0 -118 2
0 11 42 224 51 259 8 30 14 37 34 37 19 0 36 -19 84 -91z m-4888 71 c18 0 22
-29 35 -241 l6 -107 -39 -4 c-21 -3 -86 -6 -145 -7 l-108 -2 0 148 c0 81 -3
166 -7 187 l-6 39 124 -6 c68 -4 131 -7 140 -7z m294 -67 c3 -38 8 -80 10 -94
4 -21 -1 -27 -28 -37 -45 -16 -108 -72 -132 -116 -17 -32 -24 -36 -57 -36
l-38 0 -1 93 c0 50 -4 129 -7 175 l-7 82 126 0 127 0 7 -67z m175 57 l68 0 6
-47 c4 -27 9 -61 12 -78 l5 -30 -93 0 c-51 0 -105 -4 -120 -8 l-26 -7 -9 83
c-5 45 -7 86 -5 91 3 4 25 6 50 2 25 -3 75 -6 112 -6z m4065 -9 c-3 -11 -18
-75 -33 -143 l-28 -123 -32 -3 c-37 -4 -37 -6 -16 44 12 29 15 58 11 119 -3
44 -8 90 -12 103 -7 21 -5 22 55 22 56 0 61 -2 55 -19z m-3756 -53 c6 -35 18
-107 25 -160 l13 -98 -22 0 c-15 0 -32 14 -49 39 -30 43 -80 82 -137 105 -36
15 -37 17 -44 82 -4 37 -9 73 -12 81 -4 10 18 13 105 13 l110 0 11 -62z m156
52 l52 0 22 -127 c12 -71 24 -138 26 -149 4 -19 -1 -22 -42 -28 -53 -7 -163
-8 -163 -2 0 14 -41 283 -44 293 -8 20 8 25 53 19 24 -3 67 -6 96 -6z m255 -8
c0 -4 11 -62 25 -130 36 -177 42 -162 -70 -162 -52 0 -95 4 -95 9 0 5 -11 71
-25 145 -14 74 -25 138 -25 141 0 3 43 5 95 5 52 0 95 -3 95 -8z m142 2 l45
-6 31 -136 c17 -75 30 -137 29 -138 -1 -1 -42 -3 -91 -5 l-88 -4 -29 140 c-16
77 -29 143 -29 148 0 9 70 9 132 1z m233 -56 c26 -93 53 -213 48 -220 -2 -5
-40 -8 -83 -8 -74 0 -80 1 -84 23 -3 12 -17 71 -31 130 -14 60 -25 113 -25
118 0 5 36 9 80 9 l79 0 16 -52z m154 35 c9 -16 10 -16 11 -2 0 14 10 16 68
12 37 -3 70 -8 74 -12 8 -8 68 -214 68 -235 0 -14 -11 -16 -72 -14 l-71 3 -30
113 c-16 62 -32 111 -34 108 -2 -2 9 -53 26 -114 l29 -110 -76 -4 c-43 -2 -78
-3 -80 -2 -1 1 -15 55 -31 120 -16 65 -33 127 -36 137 -6 15 1 17 68 17 62 0
78 -3 86 -17z m1994 -103 c-1 -55 -4 -113 -8 -130 l-7 -30 -78 0 -79 0 42 123
42 122 40 6 c22 3 42 7 45 8 3 0 4 -44 3 -99z m-103 82 c0 -4 -17 -59 -38
-122 l-39 -115 -71 -3 c-40 -2 -72 -1 -72 1 0 2 9 30 20 62 11 32 18 60 16 62
-2 2 -14 -25 -25 -60 l-22 -64 -61 -7 c-34 -3 -64 -4 -67 -1 -5 5 7 54 24 100
6 17 5 17 -5 5 -15 -20 -4 39 17 93 15 36 38 54 26 20 -5 -17 -5 -17 8 -2 18
21 144 36 136 16 -13 -36 -14 -57 -1 -25 15 34 20 37 63 41 25 2 56 4 69 5 12
1 22 -2 22 -6z m-410 -81 c-10 -31 -21 -82 -25 -114 -7 -56 -8 -57 -39 -57
-37 0 -39 9 -25 112 14 105 21 117 67 116 l39 0 -17 -57z m1794 -122 c-11 -18
-24 -8 -24 19 1 26 1 26 15 8 8 -10 12 -23 9 -27z m1995 -176 c18 -109 36
-210 38 -224 l5 -26 -184 4 c-100 2 -192 6 -204 8 -18 4 -23 18 -37 117 -9 62
-19 145 -22 183 -3 39 -8 82 -10 97 l-4 27 77 3 c42 2 129 4 192 6 l115 3 34
-198z m-3258 144 c-15 -15 -24 -2 -16 24 7 20 8 21 17 5 7 -12 7 -21 -1 -29z
m1472 36 c-13 -2 -35 -2 -50 0 -16 2 -5 4 22 4 28 0 40 -2 28 -4z m185 0 c-26
-2 -71 -2 -100 0 -29 2 -8 3 47 3 55 0 79 -1 53 -3z m1167 -50 c11 -99 35
-286 42 -327 l6 -38 -186 4 c-102 2 -188 6 -191 8 -7 9 -16 91 -31 317 l-6 82
38 3 c21 2 102 4 180 6 l141 3 7 -58z m-725 -117 c0 -83 3 -168 7 -189 l6 -38
-114 2 c-63 1 -135 4 -161 7 l-48 4 0 147 c0 80 3 163 6 183 l7 37 136 3 c75
2 142 1 149 -1 9 -2 12 -42 12 -155z m346 134 c1 -14 4 -82 8 -152 3 -70 9
-148 12 -173 l7 -45 -100 0 c-55 0 -134 3 -175 6 l-76 7 -2 106 c-1 58 -3 142
-5 186 -1 44 0 83 2 88 3 4 77 6 166 5 l162 -3 1 -25z m-3376 -21 c0 -4 -40
-8 -89 -8 -84 0 -89 1 -84 19 4 17 14 20 54 20 32 0 49 -4 49 -12 0 -9 3 -10
8 -2 13 19 37 22 50 6 6 -9 12 -19 12 -23z m2708 -144 l-3 -186 -111 2 c-66 1
-123 7 -142 15 -32 13 -32 14 -32 81 0 37 3 112 7 165 l6 97 56 4 c31 2 93 4
139 5 l82 2 -2 -185z m-3007 163 c0 -10 2 -10 6 0 3 7 25 12 60 12 46 0 54 -3
51 -17 -2 -12 -14 -19 -36 -21 -45 -4 -40 -18 6 -16 20 1 43 -2 50 -8 8 -7 12
-7 12 1 0 7 26 11 76 10 77 -1 84 -5 89 -47 1 -10 4 -24 7 -32 17 -42 27 -83
23 -90 -3 -4 -22 -7 -42 -7 -21 0 -53 -3 -70 -7 -25 -6 -33 -4 -33 6 0 9 -3 9
-8 2 -4 -6 -31 -14 -59 -18 -47 -6 -53 -4 -54 11 -1 17 -2 17 -6 1 -3 -10 -14
-17 -26 -17 -12 0 -33 -3 -46 -7 -22 -7 -24 -5 -18 22 l6 29 -11 -26 c-10 -24
-18 -27 -82 -34 -47 -4 -72 -3 -74 4 -2 7 -8 6 -17 -3 -12 -12 -51 -16 -254
-29 -24 -2 -26 4 -51 108 -14 61 -29 122 -33 138 l-7 27 69 0 c66 0 70 -1 80
-27 l11 -28 -5 26 c-4 24 -1 27 33 32 20 3 95 6 166 7 72 0 132 3 135 5 10 10
51 4 52 -7z m2445 -35 c-6 -42 -26 -265 -26 -285 0 -5 -54 -8 -121 -8 l-121 0
7 82 c4 44 13 118 19 162 l11 81 80 6 c44 3 97 6 118 7 l39 2 -6 -47z m83 -40
c18 -79 30 -209 20 -216 -2 -2 -26 -13 -54 -25 l-50 -21 -4 22 c-4 25 19 308
26 320 2 4 13 7 23 7 15 0 22 -16 39 -87z m185 -10 c-3 -54 -7 -109 -9 -123
-2 -14 -4 -42 -4 -62 -1 -34 -3 -37 -22 -29 -20 7 -22 16 -24 107 -1 54 -6
123 -10 152 l-8 52 41 0 41 0 -5 -97z m-750 45 c-4 -24 -14 -95 -23 -158 -15
-108 -18 -115 -40 -118 -23 -4 -24 -2 -17 45 4 26 9 93 12 148 3 55 7 106 10
113 2 6 17 12 35 12 31 0 31 0 23 -42z m233 8 c-3 -19 -11 -88 -17 -153 -7
-65 -14 -123 -15 -129 -2 -7 -38 -9 -112 -6 -59 2 -110 6 -112 8 -5 4 38 295
45 306 3 4 53 8 111 8 l106 0 -6 -34z m-2738 -13 c22 -80 54 -233 50 -238 -3
-2 -37 -7 -75 -11 l-70 -6 -30 140 c-35 161 -40 148 63 151 52 1 52 1 62 -36z
m-158 -8 c39 -182 49 -239 42 -245 -4 -4 -41 -10 -81 -12 -67 -5 -73 -4 -77
16 -2 11 -14 74 -26 139 -12 65 -23 116 -25 114 -3 -2 6 -64 20 -138 14 -73
24 -135 22 -136 -1 -1 -40 -6 -87 -9 l-85 -7 -25 151 -25 151 46 4 c25 1 101
3 170 3 l124 -1 7 -30z m1889 28 c0 -4 -15 -66 -33 -137 l-33 -129 -74 2 c-41
1 -76 4 -78 6 -2 2 10 56 28 120 17 65 29 119 27 122 -3 2 -19 -53 -37 -122
l-33 -125 -74 0 c-40 0 -73 4 -73 8 0 4 12 48 26 96 14 49 23 90 21 92 -2 3
-14 -33 -27 -78 -28 -102 -37 -119 -54 -112 -15 6 -36 124 -36 204 l0 50 65 0
65 0 -5 -27 -5 -28 11 27 c9 24 16 27 67 30 147 8 252 8 252 1z m50 -45 c0
-53 16 -178 26 -210 5 -16 -2 -18 -60 -18 -53 0 -66 3 -66 15 0 9 14 72 31
140 26 104 35 125 50 125 16 0 19 -8 19 -52z m-2467 -123 c16 -116 18 -148 8
-154 -12 -8 -181 -24 -187 -19 -1 2 -11 76 -21 165 l-19 162 91 3 c49 2 94 0
98 -3 5 -4 18 -73 30 -154z m170 152 c8 -22 50 -287 46 -291 -2 -2 -45 -7 -94
-11 l-90 -7 -18 139 c-10 76 -21 148 -24 161 -5 22 -3 22 85 22 64 0 91 -4 95
-13z m1727 -80 c0 -50 4 -107 9 -125 8 -26 7 -32 -5 -32 -10 0 -13 8 -9 28 l5
27 -11 -27 c-12 -32 -25 -36 -33 -10 -10 34 -26 148 -26 190 0 41 0 42 35 42
l35 0 0 -93z m-2126 56 c9 -43 35 -297 30 -302 -5 -5 -204 -24 -209 -20 -2 2
-8 67 -14 144 -7 77 -14 152 -17 167 -5 26 -4 27 48 31 150 10 156 9 162 -20z
m1978 -40 c1 -37 2 -85 2 -105 0 -20 3 -35 8 -32 4 3 8 -4 8 -15 0 -12 -4 -21
-10 -21 -5 0 -10 6 -10 13 0 9 -2 9 -9 -1 -6 -10 -22 -12 -65 -7 -55 7 -57 9
-51 32 3 15 2 22 -4 19 -7 -5 -32 57 -66 170 -2 8 27 12 96 13 l99 2 2 -68z
m-2197 -5 c8 -74 22 -272 20 -275 -1 -2 -16 -6 -33 -9 -27 -6 -32 -4 -32 13 0
11 8 35 18 54 23 45 23 188 -1 242 -15 35 -15 37 3 37 15 0 20 -10 25 -62z
m-788 -155 c-4 -108 -8 -197 -9 -198 -5 -5 -299 -28 -302 -24 -1 2 1 51 5 109
5 58 11 149 15 202 l6 97 121 3 c67 2 133 4 146 5 l24 2 -6 -196z m68 175 c-4
-13 -9 -64 -12 -115 -4 -72 -2 -98 11 -124 9 -17 16 -54 16 -81 l0 -48 -35 0
-35 0 0 188 c0 104 3 192 7 195 3 4 17 7 31 7 21 0 23 -3 17 -22z m-384 -199
c-7 -106 -14 -196 -16 -200 -5 -8 -323 -34 -330 -27 -3 3 0 40 6 84 6 43 16
138 23 209 l11 130 150 5 c83 3 154 2 159 -2 5 -4 4 -85 -3 -199z m-325 159
c-3 -18 -13 -107 -21 -198 -9 -91 -18 -172 -21 -181 -4 -13 -31 -18 -142 -28
-75 -7 -159 -15 -186 -18 -48 -6 -49 -6 -43 19 4 14 18 101 32 194 36 247 33
232 58 237 12 2 91 4 175 6 l153 2 -5 -33z m-371 -25 c-21 -165 -61 -402 -69
-403 -15 -4 -402 -37 -404 -35 -2 2 1 20 7 41 6 22 26 118 46 214 19 96 38
185 40 197 6 24 24 27 273 31 l113 2 -6 -47z m-405 18 c0 -21 -49 -275 -75
-388 -9 -40 -22 -73 -28 -73 -7 0 -104 -9 -217 -20 -112 -10 -207 -17 -211
-14 -4 2 3 34 14 71 11 38 41 149 66 248 l46 180 135 5 c74 3 165 6 203 8 61
2 67 1 67 -17z m4240 -111 c0 -18 -7 -20 -118 -18 -65 1 -127 5 -137 9 -20 8
-12 9 123 14 29 2 55 5 57 7 3 3 21 5 40 6 28 1 35 -2 35 -18z m-410 -28 c0
-24 -44 -132 -53 -133 -7 -1 -21 -3 -32 -4 -11 -2 -50 -6 -86 -10 l-67 -8 -15
64 c-14 57 -14 29 0 -42 5 -26 4 -27 -62 -34 -72 -7 -81 -4 -88 35 -4 17 -5
13 -4 -10 2 -34 1 -35 -43 -42 -25 -3 -59 -7 -77 -7 -31 -1 -31 -1 -43 70 -7
39 -9 73 -6 76 3 3 36 8 74 11 l69 5 11 -39 11 -39 -5 43 -6 42 49 2 c59 2 96
5 198 16 107 12 175 14 175 4z m173 -3 c103 0 117 -2 117 -17 1 -15 2 -15 11
1 9 15 19 16 62 11 29 -4 53 -7 54 -8 1 -1 4 -13 8 -29 5 -18 3 -27 -5 -27 -7
0 -10 7 -6 16 3 8 2 13 -3 9 -5 -3 -12 1 -15 7 -3 7 -3 1 0 -14 5 -24 3 -28
-17 -28 -13 0 -40 -3 -60 -6 -34 -6 -36 -4 -34 17 1 13 0 16 -2 6 -6 -25 -29
-34 -103 -40 -36 -4 -82 -9 -104 -13 l-39 -7 5 31 c2 17 1 29 -3 26 -4 -2 -10
4 -13 13 -2 10 -2 1 1 -21 6 -38 -5 -55 -35 -56 -14 0 -8 37 14 84 8 16 14 36
14 44 0 9 6 12 18 7 9 -3 70 -6 135 -6z m378 -26 c1 -17 2 -17 6 0 2 9 12 17
21 17 13 0 25 -23 45 -82 15 -46 27 -89 27 -95 0 -7 4 -13 8 -13 4 0 18 -20
30 -45 l22 -45 -36 0 -36 0 6 43 5 42 -10 -37 c-10 -35 -14 -38 -47 -38 -81 1
-226 21 -234 33 -6 9 -8 9 -8 -2 0 -10 -12 -12 -53 -7 -29 4 -72 9 -97 11
-166 14 -196 18 -202 28 -6 9 -8 9 -8 0 0 -7 -7 -13 -16 -13 -14 0 -15 7 -11
37 4 20 10 40 14 44 5 5 68 16 141 26 116 15 135 15 143 2 7 -12 9 -12 9 2 0
12 20 18 97 28 53 6 99 14 101 16 2 2 0 18 -6 34 l-11 31 50 0 c40 0 49 -3 50
-17z m219 -83 c21 -59 28 -94 24 -115 -7 -28 -9 -25 -50 59 -49 100 -57 149
-24 144 16 -2 28 -23 50 -88z m70 68 c0 -19 -2 -20 -10 -8 -13 19 -13 30 0 30
6 0 10 -10 10 -22z m154 11 c3 -3 -7 -64 -22 -135 l-28 -129 -27 45 c-57 97
-78 157 -71 196 l7 36 68 -4 c37 -2 70 -6 73 -9z m171 -31 c-4 -18 -16 -82
-28 -143 l-22 -110 -74 -3 c-41 -2 -78 1 -82 5 -4 4 -2 35 6 68 7 33 21 95 30
138 l17 77 79 0 80 0 -6 -32z m109 26 c64 -9 71 -25 55 -130 l-12 -83 -90 -31
c-50 -16 -92 -28 -94 -26 -3 3 13 97 38 224 12 58 12 58 103 46z m-1855 -73
c6 -39 11 -74 11 -79 0 -5 -30 -12 -67 -16 -38 -4 -84 -9 -103 -12 -190 -26
-189 -26 -190 21 0 11 -3 43 -6 71 l-7 52 82 7 c45 4 85 4 88 1 4 -3 12 -36
19 -73 l13 -68 -6 65 c-3 36 -6 70 -7 75 -1 9 40 15 140 23 19 2 22 -6 33 -67z
m2545 -38 c-3 -49 -10 -92 -15 -97 -13 -15 -76 59 -82 96 -4 28 0 37 26 60 18
15 42 28 55 28 23 0 23 -1 16 -87z m224 81 c44 -12 24 -31 -38 -36 -51 -4 -65
-9 -94 -37 -19 -18 -42 -50 -51 -72 -10 -21 -22 -39 -27 -39 -9 0 -1 166 9
183 5 8 168 9 201 1z m-3131 -96 l9 -77 -31 -5 c-16 -3 -60 -8 -96 -12 l-66
-6 -7 82 c-4 45 -5 84 -3 86 6 7 172 20 178 15 4 -3 11 -41 16 -83z m3413 83
c0 -5 -18 -25 -40 -44 -40 -34 -42 -35 -83 -22 -65 20 -127 46 -127 54 0 4 3
11 7 14 10 11 243 8 243 -2z m-3626 -19 c2 -4 7 -43 11 -88 l7 -81 -98 -12
c-53 -6 -101 -8 -105 -4 -4 4 -9 45 -11 90 l-5 82 61 5 c65 6 117 12 128 15 4
0 9 -2 12 -7z m2560 -25 c13 -9 16 -20 12 -35 -4 -12 -11 -20 -16 -17 -5 3
-18 -11 -30 -30 -22 -35 -40 -46 -40 -23 0 6 5 40 11 75 12 67 13 67 63 30z
m1651 21 c2 -7 6 -78 9 -158 5 -117 3 -141 -7 -126 -6 10 -32 43 -56 72 -48
60 -72 67 -114 34 -33 -26 -34 -25 -42 9 -4 20 0 39 14 62 25 40 26 55 7 92
l-15 27 100 0 c71 0 101 -4 104 -12z m327 -6 c3 -4 14 -79 23 -167 9 -88 19
-183 22 -210 l5 -51 -138 13 c-136 13 -139 13 -170 45 l-32 33 -10 170 c-6 94
-9 172 -7 175 5 8 299 0 307 -8z m-4747 -75 c11 -113 11 -112 -65 -110 -36 1
-84 4 -106 8 l-41 6 -7 70 c-4 39 -6 72 -4 74 2 2 46 8 98 13 52 5 100 10 107
11 7 0 14 -26 18 -72z m5090 66 l30 -5 33 -220 c18 -121 31 -222 29 -224 -2
-3 -75 3 -162 11 -87 8 -168 15 -180 15 -19 0 -24 7 -29 43 -8 58 -36 337 -36
365 0 23 0 23 143 21 78 -1 156 -3 172 -6z m312 -9 l121 -7 6 -41 c4 -23 25
-128 47 -235 22 -106 39 -194 37 -196 -5 -4 -399 32 -404 37 -6 7 -64 383 -64
418 l0 30 68 0 c38 0 123 -3 189 -6z m-5634 -106 c5 -95 3 -98 -54 -98 -33 0
-34 4 -23 122 6 63 8 67 33 70 14 2 29 1 32 -2 4 -3 9 -44 12 -92z m6068 92
l115 0 67 -252 c37 -138 65 -253 64 -255 -6 -6 -431 37 -438 44 -10 12 -99
428 -99 466 0 6 33 7 88 4 48 -4 139 -7 203 -7z m-6789 -163 c9 -56 15 -103
13 -105 -2 -2 -28 -6 -59 -9 l-55 -6 6 104 c3 58 11 107 17 111 6 4 22 8 36 8
24 0 26 -4 42 -103z m-108 -4 c-3 -54 -7 -103 -9 -109 -3 -11 -301 -51 -311
-42 -6 7 15 210 22 218 6 5 202 26 267 29 l37 1 -6 -97z m3259 52 c21 -44 21
-45 -2 -45 -21 0 -31 19 -31 56 0 34 14 30 33 -11z m-3587 -72 c-13 -154 8
-137 -189 -161 -94 -12 -172 -20 -173 -19 -4 5 32 226 38 232 6 7 221 31 297
34 l34 1 -7 -87z m2879 71 c33 -3 74 -7 90 -9 17 -2 51 -4 78 -4 38 -1 47 -4
47 -18 0 -14 2 -15 9 -4 7 10 23 12 67 7 33 -3 66 -6 74 -7 80 -2 130 -12 131
-27 1 -14 2 -13 6 2 4 14 11 17 35 12 17 -3 38 -6 47 -6 30 0 54 -56 46 -107
l-7 -45 -71 7 c-40 4 -73 8 -74 9 -1 1 3 21 8 45 5 24 8 49 6 55 -3 6 -8 -11
-12 -37 -4 -27 -14 -51 -21 -54 -8 -3 -39 -2 -69 2 -47 5 -55 9 -56 28 0 22 0
22 -9 1 -8 -19 -13 -20 -66 -13 -31 4 -60 13 -64 19 -5 9 -9 9 -11 1 -6 -15
-229 13 -240 31 -7 11 -9 11 -9 0 0 -10 -11 -12 -42 -7 -91 13 -99 16 -94 33
3 10 10 36 16 60 l11 42 57 -5 c31 -2 84 -7 117 -11z m-3229 -41 c-3 -16 -10
-66 -17 -113 -6 -47 -15 -89 -20 -94 -7 -8 -370 -58 -377 -51 -2 1 8 58 20
126 l24 124 164 16 c232 23 213 24 206 -8z m-414 -137 c-23 -119 -26 -125 -51
-130 -49 -10 -392 -48 -396 -44 -2 2 11 62 29 133 l32 130 165 16 c90 9 182
17 205 18 l41 1 -25 -124z m4417 71 c17 -25 26 -48 22 -55 -7 -11 -22 4 -84
86 -7 9 -4 12 11 12 13 0 32 -16 51 -43z m101 29 c0 -11 -19 -15 -25 -6 -3 5
1 10 9 10 9 0 16 -2 16 -4z m-4934 -33 c-3 -10 -17 -67 -32 -128 -15 -60 -30
-113 -33 -117 -7 -7 -450 -62 -456 -56 -4 3 74 269 81 277 3 4 350 38 407 40
32 1 37 -2 33 -16z m4774 -103 c0 -3 -18 -4 -40 -2 -42 4 -46 12 -33 61 6 23
7 23 39 -15 18 -22 33 -41 34 -44z m134 14 c16 -19 26 -37 24 -40 -9 -8 -68
46 -68 62 0 22 12 16 44 -22z m111 -111 c54 -50 56 -53 15 -24 -74 53 -106 81
-90 80 8 0 42 -25 75 -56z m2306 11 l47 -6 12 -81 c6 -45 14 -99 17 -120 l6
-38 -44 6 c-115 15 -110 13 -102 43 21 81 3 121 -82 185 l-40 29 70 -6 c39 -4
91 -9 116 -12z m282 -25 c111 -9 150 -16 154 -27 12 -30 49 -233 43 -237 -7
-4 -369 41 -375 47 -6 5 -35 188 -35 217 0 21 3 23 33 18 17 -3 99 -11 180
-18z m392 -35 c99 -9 185 -22 191 -28 13 -13 68 -245 61 -253 -7 -6 -372 37
-402 48 -17 5 -24 25 -39 105 -10 55 -20 109 -23 122 -6 27 -18 27 212 6z
m464 -43 c127 -13 196 -24 201 -32 14 -21 82 -261 76 -266 -5 -5 -447 46 -454
52 -5 4 -62 236 -62 251 0 18 4 17 239 -5z"/>
<path d="M7426 3623 c-6 -14 -5 -15 5 -6 7 7 10 15 7 18 -3 3 -9 -2 -12 -12z"/>
<path d="M7351 3459 c-12 -29 -20 -54 -18 -56 2 -2 14 20 26 48 12 29 20 54
18 56 -2 2 -14 -20 -26 -48z"/>
<path d="M7496 3455 c-9 -26 -7 -32 5 -12 6 10 9 21 6 23 -2 3 -7 -2 -11 -11z"/>
<path d="M7136 3275 c-9 -26 -7 -32 5 -12 6 10 9 21 6 23 -2 3 -7 -2 -11 -11z"/>
<path d="M7006 3285 c-9 -26 -7 -32 5 -12 6 10 9 21 6 23 -2 3 -7 -2 -11 -11z"/>
<path d="M6986 3235 c-9 -26 -7 -32 5 -12 6 10 9 21 6 23 -2 3 -7 -2 -11 -11z"/>
<path d="M6091 3074 c0 -11 3 -14 6 -6 3 7 2 16 -1 19 -3 4 -6 -2 -5 -13z"/>
<path d="M6361 3055 c1 -19 18 -51 18 -35 0 8 -4 22 -9 30 -5 8 -9 11 -9 5z"/>
<path d="M6101 3040 c0 -8 4 -24 9 -35 5 -13 9 -14 9 -5 0 8 -4 24 -9 35 -5
13 -9 14 -9 5z"/>
<path d="M5960 3034 c1 -18 48 -189 49 -176 1 15 -38 175 -45 181 -2 2 -4 0
-4 -5z"/>
<path d="M6241 3024 c0 -11 3 -14 6 -6 3 7 2 16 -1 19 -3 4 -6 -2 -5 -13z"/>
<path d="M6624 2957 c1 -19 4 -33 8 -31 3 2 9 -2 12 -8 3 -7 3 1 -1 17 -9 48
-20 60 -19 22z"/>
<path d="M6121 2964 c0 -11 3 -14 6 -6 3 7 2 16 -1 19 -3 4 -6 -2 -5 -13z"/>
<path d="M6261 2954 c0 -11 3 -14 6 -6 3 7 2 16 -1 19 -3 4 -6 -2 -5 -13z"/>
<path d="M6511 2954 c0 -11 3 -14 6 -6 3 7 2 16 -1 19 -3 4 -6 -2 -5 -13z"/>
<path d="M6390 2941 c0 -11 4 -22 9 -25 5 -3 8 5 7 19 -1 29 -16 34 -16 6z"/>
<path d="M6141 2894 c0 -11 3 -14 6 -6 3 7 2 16 -1 19 -3 4 -6 -2 -5 -13z"/>
<path d="M6281 2884 c0 -11 3 -14 6 -6 3 7 2 16 -1 19 -3 4 -6 -2 -5 -13z"/>
<path d="M6171 2774 c0 -11 3 -14 6 -6 3 7 2 16 -1 19 -3 4 -6 -2 -5 -13z"/>
<path d="M6182 2730 c0 -14 2 -19 5 -12 2 6 2 18 0 25 -3 6 -5 1 -5 -13z"/>
<path d="M6440 2765 c0 -14 4 -25 9 -25 5 0 9 11 9 25 0 14 -4 25 -9 25 -5 0
-9 -11 -9 -25z"/>
<path d="M6826 2754 c-4 -14 -5 -28 -3 -31 3 -2 8 8 11 23 4 14 5 28 3 31 -3
2 -8 -8 -11 -23z"/>
<path d="M6806 2684 c-4 -14 -5 -28 -3 -31 3 -2 8 8 11 23 4 14 5 28 3 31 -3
2 -8 -8 -11 -23z"/>
<path d="M6671 2684 c0 -11 3 -14 6 -6 3 7 2 16 -1 19 -3 4 -6 -2 -5 -13z"/>
<path d="M6791 2624 c0 -11 3 -14 6 -6 3 7 2 16 -1 19 -3 4 -6 -2 -5 -13z"/>
<path d="M6521 2614 c0 -11 3 -14 6 -6 3 7 2 16 -1 19 -3 4 -6 -2 -5 -13z"/>
<path d="M6651 2614 c0 -11 3 -14 6 -6 3 7 2 16 -1 19 -3 4 -6 -2 -5 -13z"/>
<path d="M6781 2584 c0 -11 3 -14 6 -6 3 7 2 16 -1 19 -3 4 -6 -2 -5 -13z"/>
<path d="M6621 2504 c0 -11 3 -14 6 -6 3 7 2 16 -1 19 -3 4 -6 -2 -5 -13z"/>
<path d="M6761 2504 c0 -11 3 -14 6 -6 3 7 2 16 -1 19 -3 4 -6 -2 -5 -13z"/>
<path d="M6611 2464 c0 -11 3 -14 6 -6 3 7 2 16 -1 19 -3 4 -6 -2 -5 -13z"/>
<path d="M6751 2464 c0 -11 3 -14 6 -6 3 7 2 16 -1 19 -3 4 -6 -2 -5 -13z"/>
<path d="M1990 6322 c8 -5 26 -13 40 -16 17 -5 20 -4 10 2 -8 5 -26 13 -40 16
-17 5 -20 4 -10 -2z"/>
<path d="M10965 6045 c-25 -12 -26 -14 -5 -9 28 7 60 23 45 23 -5 0 -23 -6
-40 -14z"/>
<path d="M10687 5948 c-32 -11 -56 -22 -54 -24 4 -5 127 36 127 42 0 6 -11 4
-73 -18z"/>
<path d="M3186 5896 c10 -8 21 -12 24 -10 5 6 -21 24 -34 24 -6 0 -1 -6 10
-14z"/>
<path d="M2555 5810 c28 -10 57 -18 65 -18 8 0 -7 8 -35 18 -27 10 -57 18 -65
18 -8 0 8 -8 35 -18z"/>
<path d="M3390 5826 c0 -10 60 -126 65 -126 3 0 -9 28 -26 63 -33 65 -39 75
-39 63z"/>
<path d="M10222 5783 c-24 -8 -41 -17 -39 -19 4 -5 97 26 97 32 0 6 -11 4 -58
-13z"/>
<path d="M3570 5764 c0 -6 7 -19 16 -30 14 -18 14 -18 3 6 -14 31 -19 36 -19
24z"/>
<path d="M10052 5723 c-24 -8 -41 -17 -39 -19 4 -5 97 26 97 32 0 6 -11 4 -58
-13z"/>
<path d="M3308 5723 c7 -3 16 -2 19 1 4 3 -2 6 -13 5 -11 0 -14 -3 -6 -6z"/>
<path d="M3750 5690 c6 -11 12 -20 14 -20 2 0 2 9 -1 20 -3 11 -9 20 -15 20
-5 0 -4 -9 2 -20z"/>
<path d="M3620 5670 c6 -11 13 -20 16 -20 2 0 0 9 -6 20 -6 11 -13 20 -16 20
-2 0 0 -9 6 -20z"/>
<path d="M3030 5665 c19 -7 42 -13 50 -13 8 0 -1 6 -20 13 -19 7 -42 13 -50
13 -8 0 1 -6 20 -13z"/>
<path d="M3780 5640 c6 -11 13 -20 16 -20 2 0 0 9 -6 20 -6 11 -13 20 -16 20
-2 0 0 -9 6 -20z"/>
<path d="M9835 5645 c-25 -12 -26 -14 -5 -9 28 7 60 23 45 23 -5 0 -23 -6 -40
-14z"/>
<path d="M3588 5633 c7 -3 16 -2 19 1 4 3 -2 6 -13 5 -11 0 -14 -3 -6 -6z"/>
<path d="M3640 5632 c0 -5 7 -15 15 -22 8 -7 15 -8 15 -2 0 5 -7 15 -15 22 -8
7 -15 8 -15 2z"/>
<path d="M3230 5605 c19 -7 42 -13 50 -13 8 0 -1 6 -20 13 -19 7 -42 13 -50
13 -8 0 1 -6 20 -13z"/>
<path d="M3680 5570 c6 -11 13 -20 16 -20 2 0 0 9 -6 20 -6 11 -13 20 -16 20
-2 0 0 -9 6 -20z"/>
<path d="M3415 5550 c11 -5 27 -9 35 -9 9 0 8 4 -5 9 -11 5 -27 9 -35 9 -9 0
-8 -4 5 -9z"/>
<path d="M9790 5495 c-19 -7 -28 -14 -20 -14 8 0 29 6 45 14 39 17 21 18 -25
0z"/>
<path d="M9347 5460 c-3 -11 -3 -20 -1 -20 2 0 8 9 14 20 6 11 7 20 2 20 -6 0
-12 -9 -15 -20z"/>
<path d="M9176 5403 c-6 -14 -5 -15 5 -6 7 7 10 15 7 18 -3 3 -9 -2 -12 -12z"/>
<path d="M9310 5390 c-6 -11 -8 -20 -6 -20 3 0 10 9 16 20 6 11 8 20 6 20 -3
0 -10 -9 -16 -20z"/>
<path d="M9150 5360 c-6 -11 -8 -20 -6 -20 3 0 10 9 16 20 6 11 8 20 6 20 -3
0 -10 -9 -16 -20z"/>
<path d="M9840 5365 c-19 -7 -28 -13 -20 -13 8 0 31 6 50 13 19 7 28 13 20 13
-8 0 -31 -6 -50 -13z"/>
<path d="M9010 5350 c-6 -11 -9 -20 -8 -20 2 0 11 9 21 20 9 11 13 20 7 20 -5
0 -14 -9 -20 -20z"/>
<path d="M9273 5328 c-6 -7 -16 -24 -23 -38 -10 -22 -9 -22 14 5 23 27 32 45
22 45 -2 0 -8 -6 -13 -12z"/>
<path d="M9120 5310 c-6 -11 -8 -20 -6 -20 3 0 10 9 16 20 6 11 8 20 6 20 -3
0 -10 -9 -16 -20z"/>
<path d="M8860 5310 c-8 -5 -12 -11 -10 -14 3 -2 14 2 24 10 22 15 10 19 -14
4z"/>
<path d="M9640 5305 c-19 -7 -28 -13 -20 -13 8 0 31 6 50 13 19 7 28 13 20 13
-8 0 -31 -6 -50 -13z"/>
<path d="M9094 5272 c-6 -4 -14 -16 -17 -27 -7 -19 -6 -19 10 1 10 12 25 24
33 27 13 5 13 5 0 6 -8 0 -20 -3 -26 -7z"/>
<path d="M9224 5248 c-4 -7 -14 -24 -22 -38 -14 -24 -13 -24 3 -5 20 24 37 55
31 55 -3 0 -8 -6 -12 -12z"/>
<path d="M9455 5250 c-13 -5 -14 -9 -5 -9 8 0 24 4 35 9 13 5 14 9 5 9 -8 0
-24 -4 -35 -9z"/>
<path d="M8923 5218 c-22 -29 -24 -41 -3 -20 12 13 20 25 17 28 -2 2 -9 -1
-14 -8z"/>
<path d="M8659 5193 c-13 -16 -12 -17 4 -4 16 13 21 21 13 21 -2 0 -10 -8 -17
-17z"/>
<path d="M9255 5190 c-13 -5 -14 -9 -5 -9 8 0 24 4 35 9 13 5 14 9 5 9 -8 0
-24 -4 -35 -9z"/>
<path d="M8750 5163 c-14 -7 -18 -13 -10 -13 17 0 47 17 40 23 -3 2 -16 -2
-30 -10z"/>
<path d="M9160 5164 c-14 -8 -19 -14 -12 -14 7 0 10 -6 7 -12 -4 -7 -1 -6 7 3
7 9 20 18 28 21 7 2 10 7 5 10 -6 2 -21 -1 -35 -8z"/>
<path d="M8405 5160 c-16 -7 -17 -9 -3 -9 9 -1 20 4 23 9 7 11 7 11 -20 0z"/>
<path d="M8629 5153 c-13 -16 -12 -17 4 -4 9 7 17 15 17 17 0 8 -8 3 -21 -13z"/>
<path d="M8879 5153 c-13 -16 -12 -17 4 -4 16 13 21 21 13 21 -2 0 -10 -8 -17
-17z"/>
<path d="M9009 5143 c-13 -16 -12 -17 4 -4 9 7 17 15 17 17 0 8 -8 3 -21 -13z"/>
<path d="M9085 5140 c-13 -5 -14 -9 -5 -9 8 0 24 4 35 9 13 5 14 9 5 9 -8 0
-24 -4 -35 -9z"/>
<path d="M9575 5135 c-39 -14 -40 -14 -5 -8 41 7 82 22 60 22 -8 0 -33 -7 -55
-14z"/>
<path d="M8600 5115 c-11 -13 -10 -14 4 -9 9 3 16 10 16 15 0 13 -6 11 -20 -6z"/>
<path d="M5260 5116 c0 -2 7 -7 16 -10 8 -3 12 -2 9 4 -6 10 -25 14 -25 6z"/>
<path d="M8984 5112 c-6 -4 -14 -16 -17 -27 -7 -19 -6 -18 10 2 10 11 27 23
38 26 l20 5 -20 1 c-11 0 -25 -3 -31 -7z"/>
<path d="M8821 5074 c-12 -14 -20 -28 -18 -31 3 -2 15 10 27 26 26 38 22 40
-9 5z"/>
<path d="M9088 5040 c-18 -27 -39 -50 -46 -50 -7 0 -11 -4 -8 -9 4 -5 16 -4
31 2 13 7 20 13 15 15 -6 2 4 24 21 48 16 24 28 44 25 44 -3 0 -21 -22 -38
-50z"/>
<path d="M9375 5080 c-13 -5 -14 -9 -5 -9 8 0 24 4 35 9 13 5 14 9 5 9 -8 0
-24 -4 -35 -9z"/>
<path d="M9328 5063 c7 -3 16 -2 19 1 4 3 -2 6 -13 5 -11 0 -14 -3 -6 -6z"/>
<path d="M8939 5043 c-13 -16 -12 -17 4 -4 9 7 17 15 17 17 0 8 -8 3 -21 -13z"/>
<path d="M4238 5033 c7 -3 16 -2 19 1 4 3 -2 6 -13 5 -11 0 -14 -3 -6 -6z"/>
<path d="M4278 5023 c7 -3 16 -2 19 1 4 3 -2 6 -13 5 -11 0 -14 -3 -6 -6z"/>
<path d="M9155 5020 c-13 -5 -14 -9 -5 -9 8 0 24 4 35 9 13 5 14 9 5 9 -8 0
-24 -4 -35 -9z"/>
<path d="M4318 5013 c7 -3 16 -2 19 1 4 3 -2 6 -13 5 -11 0 -14 -3 -6 -6z"/>
<path d="M4870 5011 c0 -5 7 -11 15 -15 8 -3 15 -1 15 3 0 5 -7 11 -15 15 -8
3 -15 1 -15 -3z"/>
<path d="M5277 5009 c7 -7 15 -10 18 -7 3 3 -2 9 -12 12 -14 6 -15 5 -6 -5z"/>
<path d="M8640 5010 c-8 -5 -12 -12 -9 -15 4 -3 12 1 19 10 14 17 11 19 -10 5z"/>
<path d="M8769 5003 c-13 -16 -12 -17 4 -4 16 13 21 21 13 21 -2 0 -10 -8 -17
-17z"/>
<path d="M8900 4990 c-12 -16 -19 -30 -16 -30 2 0 14 14 26 30 12 17 19 30 16
30 -2 0 -14 -13 -26 -30z"/>
<path d="M9108 5003 c7 -3 16 -2 19 1 4 3 -2 6 -13 5 -11 0 -14 -3 -6 -6z"/>
<path d="M4650 4996 c0 -2 8 -10 18 -17 15 -13 16 -12 3 4 -13 16 -21 21 -21
13z"/>
<path d="M4438 4983 c7 -3 16 -2 19 1 4 3 -2 6 -13 5 -11 0 -14 -3 -6 -6z"/>
<path d="M4795 4970 c10 -11 20 -20 23 -20 3 0 -3 9 -13 20 -10 11 -20 20 -23
20 -3 0 3 -9 13 -20z"/>
<path d="M4478 4973 c7 -3 16 -2 19 1 4 3 -2 6 -13 5 -11 0 -14 -3 -6 -6z"/>
<path d="M5017 4969 c7 -7 15 -10 18 -7 3 3 -2 9 -12 12 -14 6 -15 5 -6 -5z"/>
<path d="M5390 4976 c0 -2 7 -7 16 -10 8 -3 12 -2 9 4 -6 10 -25 14 -25 6z"/>
<path d="M8739 4963 c-13 -16 -12 -17 4 -4 9 7 17 15 17 17 0 8 -8 3 -21 -13z"/>
<path d="M8998 4973 c7 -3 16 -2 19 1 4 3 -2 6 -13 5 -11 0 -14 -3 -6 -6z"/>
<path d="M4525 4963 c11 -3 31 -15 45 -26 15 -14 19 -15 11 -4 -7 9 -10 17 -5
18 17 1 -31 18 -51 17 l-20 0 20 -5z"/>
<path d="M8935 4960 c-13 -5 -14 -9 -5 -9 8 0 24 4 35 9 13 5 14 9 5 9 -8 0
-24 -4 -35 -9z"/>
<path d="M4410 4956 c0 -2 8 -10 18 -17 15 -13 16 -12 3 4 -13 16 -21 21 -21
13z"/>
<path d="M9010 4930 c-12 -16 -19 -30 -16 -30 2 0 14 14 26 30 12 17 19 30 16
30 -2 0 -14 -13 -26 -30z"/>
<path d="M4598 4943 c7 -3 16 -2 19 1 4 3 -2 6 -13 5 -11 0 -14 -3 -6 -6z"/>
<path d="M4693 4942 c4 -6 -1 -13 -10 -15 -14 -4 -13 -5 4 -6 12 0 34 -13 48
-28 l25 -28 -12 25 c-6 14 -23 34 -36 45 -14 10 -22 13 -19 7z"/>
<path d="M4930 4946 c0 -2 8 -10 18 -17 15 -13 16 -12 3 4 -13 16 -21 21 -21
13z"/>
<path d="M8863 4943 c-7 -2 -13 -9 -13 -15 0 -7 4 -7 13 0 6 5 21 12 32 15
l20 5 -20 0 c-11 0 -26 -2 -32 -5z"/>
<path d="M4638 4933 c7 -3 16 -2 19 1 4 3 -2 6 -13 5 -11 0 -14 -3 -6 -6z"/>
<path d="M5145 4930 c27 -12 43 -12 25 0 -8 5 -22 9 -30 9 -10 0 -8 -3 5 -9z"/>
<path d="M8709 4923 c-13 -16 -12 -17 4 -4 9 7 17 15 17 17 0 8 -8 3 -21 -13z"/>
<path d="M4830 4926 c0 -2 8 -10 18 -17 15 -13 16 -12 3 4 -13 16 -21 21 -21
13z"/>
<path d="M8818 4923 c7 -3 16 -2 19 1 4 3 -2 6 -13 5 -11 0 -14 -3 -6 -6z"/>
<path d="M4470 4880 c17 -22 34 -40 37 -40 2 0 -10 18 -27 40 -17 22 -34 40
-37 40 -2 0 10 -18 27 -40z"/>
<path d="M8778 4913 c7 -3 16 -2 19 1 4 3 -2 6 -13 5 -11 0 -14 -3 -6 -6z"/>
<path d="M4590 4906 c0 -2 8 -10 18 -17 15 -13 16 -12 3 4 -13 16 -21 21 -21
13z"/>
<path d="M4758 4903 c7 -3 16 -2 19 1 4 3 -2 6 -13 5 -11 0 -14 -3 -6 -6z"/>
<path d="M4798 4893 c7 -3 16 -2 19 1 4 3 -2 6 -13 5 -11 0 -14 -3 -6 -6z"/>
<path d="M5280 4896 c0 -2 7 -7 16 -10 8 -3 12 -2 9 4 -6 10 -25 14 -25 6z"/>
<path d="M9278 4893 c7 -3 16 -2 19 1 4 3 -2 6 -13 5 -11 0 -14 -3 -6 -6z"/>
<path d="M4879 4866 c14 -15 26 -26 28 -26 9 0 -24 40 -37 45 -8 4 -4 -5 9
-19z"/>
<path d="M4980 4886 c0 -2 8 -10 18 -17 15 -13 16 -12 3 4 -13 16 -21 21 -21
13z"/>
<path d="M8960 4860 c-12 -16 -19 -30 -16 -30 2 0 14 14 26 30 12 17 19 30 16
30 -2 0 -14 -13 -26 -30z"/>
<path d="M9238 4883 c7 -3 16 -2 19 1 4 3 -2 6 -13 5 -11 0 -14 -3 -6 -6z"/>
<path d="M9198 4873 c7 -3 16 -2 19 1 4 3 -2 6 -13 5 -11 0 -14 -3 -6 -6z"/>
<path d="M4620 4866 c0 -2 8 -10 18 -17 15 -13 16 -12 3 4 -13 16 -21 21 -21
13z"/>
<path d="M4918 4863 c7 -3 16 -2 19 1 4 3 -2 6 -13 5 -11 0 -14 -3 -6 -6z"/>
<path d="M5405 4860 c27 -12 43 -12 25 0 -8 5 -22 9 -30 9 -10 0 -8 -3 5 -9z"/>
<path d="M4958 4853 c7 -3 16 -2 19 1 4 3 -2 6 -13 5 -11 0 -14 -3 -6 -6z"/>
<path d="M4770 4846 c0 -2 8 -10 18 -17 15 -13 16 -12 3 4 -13 16 -21 21 -21
13z"/>
<path d="M5000 4843 c8 -3 26 -15 40 -27 16 -14 20 -15 11 -3 -7 9 -10 17 -5
18 14 1 -29 18 -46 18 -13 -1 -13 -1 0 -6z"/>
<path d="M9078 4843 c7 -3 16 -2 19 1 4 3 -2 6 -13 5 -11 0 -14 -3 -6 -6z"/>
<path d="M5527 4829 c7 -7 15 -10 18 -7 3 3 -2 9 -12 12 -14 6 -15 5 -6 -5z"/>
<path d="M9038 4833 c7 -3 16 -2 19 1 4 3 -2 6 -13 5 -11 0 -14 -3 -6 -6z"/>
<path d="M8998 4823 c7 -3 16 -2 19 1 4 3 -2 6 -13 5 -11 0 -14 -3 -6 -6z"/>
<path d="M4920 4816 c0 -2 8 -10 18 -17 15 -13 16 -12 3 4 -13 16 -21 21 -21
13z"/>
<path d="M5150 4812 c0 -13 47 -28 57 -18 4 3 -3 6 -13 6 -11 0 -25 5 -32 12
-9 9 -12 9 -12 0z"/>
<path d="M5578 4813 c7 -3 16 -2 19 1 4 3 -2 6 -13 5 -11 0 -14 -3 -6 -6z"/>
<path d="M8925 4812 c-6 -4 -16 -18 -23 -32 -13 -24 -13 -24 13 3 25 27 31 44
10 29z"/>
<path d="M8958 4813 c7 -3 16 -2 19 1 4 3 -2 6 -13 5 -11 0 -14 -3 -6 -6z"/>
<path d="M4815 4790 c10 -11 20 -20 23 -20 3 0 -3 9 -13 20 -10 11 -20 20 -23
20 -3 0 3 -9 13 -20z"/>
<path d="M8878 4793 c7 -3 16 -2 19 1 4 3 -2 6 -13 5 -11 0 -14 -3 -6 -6z"/>
<path d="M8838 4783 c7 -3 16 -2 19 1 4 3 -2 6 -13 5 -11 0 -14 -3 -6 -6z"/>
<path d="M5280 4770 c34 -11 60 -11 35 0 -11 5 -29 8 -40 8 -16 0 -15 -2 5 -8z"/>
<path d="M4960 4766 c0 -2 8 -10 18 -17 15 -13 16 -12 3 4 -13 16 -21 21 -21
13z"/>
<path d="M4580 4730 c12 -16 24 -30 26 -30 3 0 -4 14 -16 30 -12 17 -24 30
-26 30 -3 0 4 -13 16 -30z"/>
<path d="M5348 4753 c7 -3 16 -2 19 1 4 3 -2 6 -13 5 -11 0 -14 -3 -6 -6z"/>
<path d="M5388 4743 c7 -3 16 -2 19 1 4 3 -2 6 -13 5 -11 0 -14 -3 -6 -6z"/>
<path d="M5420 4741 c0 -5 7 -11 15 -15 8 -3 15 -1 15 3 0 5 -7 11 -15 15 -8
3 -15 1 -15 -3z"/>
<path d="M4898 4723 c7 -3 16 -2 19 1 4 3 -2 6 -13 5 -11 0 -14 -3 -6 -6z"/>
<path d="M4994 4722 c6 -10 0 -12 -31 -8 -32 5 -31 4 12 -9 49 -14 99 -20 65
-8 -8 3 -24 13 -34 22 -11 9 -16 10 -12 3z"/>
<path d="M5110 4726 c0 -2 8 -10 18 -17 15 -13 16 -12 3 4 -13 16 -21 21 -21
13z"/>
<path d="M5468 4723 c7 -3 16 -2 19 1 4 3 -2 6 -13 5 -11 0 -14 -3 -6 -6z"/>
<path d="M5540 4711 c0 -5 7 -12 16 -15 14 -5 15 -4 4 9 -14 17 -20 19 -20 6z"/>
<path d="M4740 4706 c0 -2 8 -10 18 -17 15 -13 16 -12 3 4 -13 16 -21 21 -21
13z"/>
<path d="M5115 4672 c56 -17 75 -19 63 -7 -6 6 -32 12 -88 20 -20 3 -9 -3 25
-13z"/>
<path d="M4900 4676 c0 -2 8 -10 18 -17 15 -13 16 -12 3 4 -13 16 -21 21 -21
13z"/>
<path d="M5660 4676 c0 -2 7 -7 16 -10 8 -3 12 -2 9 4 -6 10 -25 14 -25 6z"/>
<path d="M4770 4666 c0 -2 8 -10 18 -17 15 -13 16 -12 3 4 -13 16 -21 21 -21
13z"/>
<path d="M5708 4663 c7 -3 16 -2 19 1 4 3 -2 6 -13 5 -11 0 -14 -3 -6 -6z"/>
<path d="M5255 4640 c63 -17 129 -28 85 -13 -8 2 -22 7 -30 10 -8 3 -22 7 -30
8 -8 1 -33 5 -55 8 -22 4 -8 -2 30 -13z"/>
<path d="M4950 4610 c12 -16 24 -30 26 -30 3 0 -4 14 -16 30 -12 17 -24 30
-26 30 -3 0 4 -13 16 -30z"/>
<path d="M5405 4604 c28 -7 57 -13 65 -13 8 0 -7 7 -35 15 -27 7 -57 13 -65
13 -8 0 8 -7 35 -15z"/>
<path d="M7949 4603 c-13 -16 -12 -17 4 -4 9 7 17 15 17 17 0 8 -8 3 -21 -13z"/>
<path d="M8168 4613 c7 -3 16 -2 19 1 4 3 -2 6 -13 5 -11 0 -14 -3 -6 -6z"/>
<path d="M7625 4600 c-3 -5 -2 -10 4 -10 5 0 13 5 16 10 3 6 2 10 -4 10 -5 0
-13 -4 -16 -10z"/>
<path d="M8128 4603 c7 -3 16 -2 19 1 4 3 -2 6 -13 5 -11 0 -14 -3 -6 -6z"/>
<path d="M8050 4590 c-8 -5 -12 -11 -9 -14 2 -3 11 -1 19 4 8 5 12 11 9 14 -2
3 -11 1 -19 -4z"/>
<path d="M8088 4593 c7 -3 16 -2 19 1 4 3 -2 6 -13 5 -11 0 -14 -3 -6 -6z"/>
<path d="M8309 4583 c-13 -16 -12 -17 4 -4 16 13 21 21 13 21 -2 0 -10 -8 -17
-17z"/>
<path d="M5498 4583 c7 -3 16 -2 19 1 4 3 -2 6 -13 5 -11 0 -14 -3 -6 -6z"/>
<path d="M8164 4568 l-19 -23 23 19 c12 11 22 21 22 23 0 8 -8 2 -26 -19z"/>
<path d="M5550 4570 c14 -4 34 -8 45 -8 16 0 15 2 -5 8 -14 4 -34 8 -45 8 -16
0 -15 -2 5 -8z"/>
<path d="M7510 4570 c-8 -5 -10 -10 -5 -10 6 0 17 5 25 10 8 5 11 10 5 10 -5
0 -17 -5 -25 -10z"/>
<path d="M8008 4573 c7 -3 16 -2 19 1 4 3 -2 6 -13 5 -11 0 -14 -3 -6 -6z"/>
<path d="M5110 4566 c0 -2 8 -10 18 -17 15 -13 16 -12 3 4 -13 16 -21 21 -21
13z"/>
<path d="M7968 4563 c7 -3 16 -2 19 1 4 3 -2 6 -13 5 -11 0 -14 -3 -6 -6z"/>
<path d="M5628 4553 c7 -3 16 -2 19 1 4 3 -2 6 -13 5 -11 0 -14 -3 -6 -6z"/>
<path d="M7897 4553 c-9 -2 -15 -9 -11 -14 4 -6 10 -6 17 -1 7 6 21 12 32 15
l20 5 -20 0 c-11 0 -28 -2 -38 -5z"/>
<path d="M8019 4543 c-13 -16 -12 -17 4 -4 9 7 17 15 17 17 0 8 -8 3 -21 -13z"/>
<path d="M5675 4541 c11 -5 40 -11 65 -15 30 -4 36 -3 20 3 -37 12 -109 22
-85 12z"/>
<path d="M7390 4540 c-9 -6 -10 -10 -3 -10 6 0 15 5 18 10 8 12 4 12 -15 0z"/>
<path d="M8269 4533 c-13 -16 -12 -17 4 -4 9 7 17 15 17 17 0 8 -8 3 -21 -13z"/>
<path d="M7848 4533 c7 -3 16 -2 19 1 4 3 -2 6 -13 5 -11 0 -14 -3 -6 -6z"/>
<path d="M8124 4518 l-19 -23 23 19 c12 11 22 21 22 23 0 8 -8 2 -26 -19z"/>
<path d="M5790 4521 c0 -5 7 -11 15 -15 8 -3 15 -1 15 3 0 5 -7 11 -15 15 -8
3 -15 1 -15 -3z"/>
<path d="M7808 4523 c7 -3 16 -2 19 1 4 3 -2 6 -13 5 -11 0 -14 -3 -6 -6z"/>
<path d="M7740 4510 c-20 -6 -21 -8 -5 -8 11 0 29 3 40 8 25 11 -1 11 -35 0z"/>
<path d="M5838 4503 c6 -2 18 -2 25 0 6 3 1 5 -13 5 -14 0 -19 -2 -12 -5z"/>
<path d="M7859 4493 c-13 -16 -12 -17 4 -4 16 13 21 21 13 21 -2 0 -10 -8 -17
-17z"/>
<path d="M7979 4493 c-13 -16 -12 -17 4 -4 16 13 21 21 13 21 -2 0 -10 -8 -17
-17z"/>
<path d="M7688 4493 c7 -3 16 -2 19 1 4 3 -2 6 -13 5 -11 0 -14 -3 -6 -6z"/>
<path d="M5186 4463 c53 -83 67 -103 71 -103 3 0 -3 12 -13 28 -53 82 -67 102
-71 102 -3 0 3 -12 13 -27z"/>
<path d="M7615 4480 c-25 -11 1 -11 35 0 20 6 21 8 5 8 -11 0 -29 -3 -40 -8z"/>
<path d="M8088 4471 c-8 -11 -38 -26 -68 -34 l-55 -15 46 3 c53 3 69 11 87 43
15 27 8 29 -10 3z"/>
<path d="M7500 4450 c-8 -5 -12 -12 -9 -15 4 -3 12 1 19 10 14 17 11 19 -10 5z"/>
<path d="M7819 4443 c-13 -16 -12 -17 4 -4 9 7 17 15 17 17 0 8 -8 3 -21 -13z"/>
<path d="M7939 4443 c-13 -16 -12 -17 4 -4 16 13 21 21 13 21 -2 0 -10 -8 -17
-17z"/>
<path d="M8330 4420 c-12 -16 -19 -30 -16 -30 2 0 14 14 26 30 12 17 19 30 16
30 -2 0 -14 -13 -26 -30z"/>
<path d="M8170 4400 c-12 -16 -19 -30 -16 -30 2 0 14 14 26 30 12 17 19 30 16
30 -2 0 -14 -13 -26 -30z"/>
<path d="M5365 4383 c15 -24 30 -43 32 -43 7 0 -31 61 -46 73 -8 7 -2 -7 14
-30z"/>
<path d="M7365 4410 c-3 -6 1 -7 9 -4 18 7 21 14 7 14 -6 0 -13 -4 -16 -10z"/>
<path d="M7880 4405 c-42 -13 -42 -13 -10 -11 19 2 42 6 50 9 8 3 22 8 30 10
35 12 -28 4 -70 -8z"/>
<path d="M5685 4395 c68 -18 101 -17 45 1 -25 7 -56 13 -70 13 -16 -1 -7 -6
25 -14z"/>
<path d="M7780 4395 c-7 -8 -27 -19 -44 -24 l-31 -9 30 -1 c17 0 37 4 45 9 8
5 11 10 6 10 -5 0 -3 7 4 15 7 8 10 15 7 15 -2 0 -10 -7 -17 -15z"/>
<path d="M8029 4393 c-13 -16 -12 -17 4 -4 16 13 21 21 13 21 -2 0 -10 -8 -17
-17z"/>
<path d="M7260 4390 c-8 -5 -12 -12 -9 -15 4 -3 12 1 19 10 14 17 11 19 -10 5z"/>
<path d="M7808 4383 c7 -3 16 -2 19 1 4 3 -2 6 -13 5 -11 0 -14 -3 -6 -6z"/>
<path d="M5825 4365 c28 -7 59 -13 70 -13 11 0 -2 6 -30 13 -27 7 -59 13 -70
13 -11 0 3 -6 30 -13z"/>
<path d="M7208 4373 c7 -3 16 -2 19 1 4 3 -2 6 -13 5 -11 0 -14 -3 -6 -6z"/>
<path d="M7869 4353 c-13 -16 -12 -17 4 -4 9 7 17 15 17 17 0 8 -8 3 -21 -13z"/>
<path d="M7999 4353 c-13 -16 -12 -17 4 -4 16 13 21 21 13 21 -2 0 -10 -8 -17
-17z"/>
<path d="M5920 4350 c0 -12 28 -21 35 -11 2 5 -4 11 -15 14 -11 3 -20 2 -20
-3z"/>
<path d="M7678 4353 c7 -3 16 -2 19 1 4 3 -2 6 -13 5 -11 0 -14 -3 -6 -6z"/>
<path d="M5975 4340 c-3 -5 1 -10 10 -10 9 0 13 5 10 10 -3 6 -8 10 -10 10 -2
0 -7 -4 -10 -10z"/>
<path d="M7580 4334 l-45 -13 45 6 c25 3 54 9 65 14 l20 8 -20 -1 c-11 0 -40
-6 -65 -14z"/>
<path d="M4865 4280 c14 -27 28 -50 30 -50 3 0 -6 23 -20 50 -14 28 -28 50
-30 50 -3 0 6 -22 20 -50z"/>
<path d="M7839 4313 c-13 -16 -12 -17 4 -4 9 7 17 15 17 17 0 8 -8 3 -21 -13z"/>
<path d="M5015 4290 c9 -16 18 -30 21 -30 2 0 -2 14 -11 30 -9 17 -18 30 -21
30 -2 0 2 -13 11 -30z"/>
<path d="M7450 4305 c-25 -7 -38 -13 -30 -14 8 0 38 6 65 13 28 8 41 14 30 14
-11 0 -40 -6 -65 -13z"/>
<path d="M5160 4290 c6 -11 13 -20 16 -20 2 0 0 9 -6 20 -6 11 -13 20 -16 20
-2 0 0 -9 6 -20z"/>
<path d="M7345 4280 l-20 -9 20 0 c11 0 29 4 40 9 l20 9 -20 0 c-11 0 -29 -4
-40 -9z"/>
<path d="M5320 4250 c6 -11 13 -20 16 -20 2 0 0 9 -6 20 -6 11 -13 20 -16 20
-2 0 0 -9 6 -20z"/>
<path d="M7240 4255 c-25 -7 -38 -13 -30 -14 8 0 38 6 65 13 28 8 41 14 30 14
-11 0 -40 -6 -65 -13z"/>
<path d="M5200 4220 c11 -22 23 -40 25 -40 3 0 -4 18 -15 40 -11 22 -23 40
-25 40 -3 0 4 -18 15 -40z"/>
<path d="M7168 4233 c7 -3 16 -2 19 1 4 3 -2 6 -13 5 -11 0 -14 -3 -6 -6z"/>
<path d="M7116 4221 c-4 -5 3 -7 14 -4 23 6 26 13 6 13 -8 0 -17 -4 -20 -9z"/>
<path d="M7892 4203 c-26 -38 -34 -53 -29 -53 2 0 16 18 31 40 29 45 28 56 -2
13z"/>
<path d="M5355 4190 c9 -16 18 -30 21 -30 2 0 -2 14 -11 30 -9 17 -18 30 -21
30 -2 0 2 -13 11 -30z"/>
<path d="M5480 4200 c6 -11 13 -20 16 -20 2 0 0 9 -6 20 -6 11 -13 20 -16 20
-2 0 0 -9 6 -20z"/>
<path d="M7078 4213 c7 -3 16 -2 19 1 4 3 -2 6 -13 5 -11 0 -14 -3 -6 -6z"/>
<path d="M8174 4188 c-4 -7 -14 -24 -22 -38 -14 -24 -13 -24 3 -5 20 24 37 55
31 55 -3 0 -8 -6 -12 -12z"/>
<path d="M8004 4158 c-4 -7 -14 -24 -22 -38 -14 -24 -13 -24 3 -5 20 24 37 55
31 55 -3 0 -8 -6 -12 -12z"/>
<path d="M5520 4130 c6 -11 13 -20 16 -20 2 0 0 9 -6 20 -6 11 -13 20 -16 20
-2 0 0 -9 6 -20z"/>
<path d="M7226 4110 c-11 -3 -15 -9 -10 -13 10 -6 42 9 34 16 -3 3 -14 1 -24
-3z"/>
<path d="M7820 4090 c-6 -11 -8 -20 -6 -20 3 0 10 9 16 20 6 11 8 20 6 20 -3
0 -10 -9 -16 -20z"/>
<path d="M7115 4085 c-27 -7 -41 -13 -30 -14 11 0 43 6 70 13 63 18 28 19 -40
1z"/>
<path d="M6970 4055 c-45 -17 -29 -18 40 0 39 9 46 13 25 13 -16 0 -46 -6 -65
-13z"/>
<path d="M5620 3941 c0 -6 4 -13 10 -16 6 -3 7 1 4 9 -7 18 -14 21 -14 7z"/>
<path d="M5640 3901 c0 -6 4 -13 10 -16 6 -3 7 1 4 9 -7 18 -14 21 -14 7z"/>
<path d="M5776 3887 c3 -10 9 -15 12 -12 3 3 0 11 -7 18 -10 9 -11 8 -5 -6z"/>
<path d="M5541 3825 c0 -5 8 -26 19 -45 11 -19 19 -30 19 -25 0 6 -8 26 -19
45 -11 19 -19 31 -19 25z"/>
<path d="M5711 3755 c0 -5 6 -21 14 -35 8 -14 14 -20 14 -15 0 6 -6 21 -14 35
-8 14 -14 21 -14 15z"/>
<path d="M5580 3735 c0 -5 5 -17 10 -25 5 -8 10 -10 10 -5 0 6 -5 17 -10 25
-5 8 -10 11 -10 5z"/>
<path d="M5850 3735 c0 -5 5 -17 10 -25 5 -8 10 -10 10 -5 0 6 -5 17 -10 25
-5 8 -10 11 -10 5z"/>
<path d="M5740 3685 c0 -5 5 -17 10 -25 5 -8 10 -10 10 -5 0 6 -5 17 -10 25
-5 8 -10 11 -10 5z"/>
<path d="M6010 3651 c0 -6 4 -13 10 -16 6 -3 7 1 4 9 -7 18 -14 21 -14 7z"/>
<path d="M5910 3595 c0 -5 5 -17 10 -25 5 -8 10 -10 10 -5 0 6 -5 17 -10 25
-5 8 -10 11 -10 5z"/>
<path d="M5780 3585 c0 -5 5 -17 10 -25 5 -8 10 -10 10 -5 0 6 -5 17 -10 25
-5 8 -10 11 -10 5z"/>
<path d="M5806 3520 c3 -14 11 -32 16 -40 6 -10 7 -7 2 10 -3 14 -11 32 -16
40 -6 10 -7 7 -2 -10z"/>
<path d="M5511 3520 c0 -8 4 -22 9 -30 12 -18 12 -2 0 25 -6 13 -9 15 -9 5z"/>
<path d="M6517 3245 c-6 -35 -6 -37 9 -21 6 6 8 20 4 31 -6 16 -8 15 -13 -10z"/>
<path d="M5902 3240 c0 -8 6 -31 13 -50 7 -19 13 -28 13 -20 0 8 -6 31 -13 50
-7 19 -13 28 -13 20z"/>
<path d="M6051 3210 c0 -8 4 -24 9 -35 5 -13 9 -14 9 -5 0 8 -4 24 -9 35 -5
13 -9 14 -9 5z"/>
<path d="M6607 3190 c-3 -11 -1 -20 4 -20 5 0 9 9 9 20 0 11 -2 20 -4 20 -2 0
-6 -9 -9 -20z"/>
<path d="M6433 3185 c0 -8 4 -15 9 -15 4 0 8 7 8 15 0 8 -4 15 -8 15 -5 0 -9
-7 -9 -15z"/>
<path d="M6816 3125 c-9 -26 -7 -32 5 -12 6 10 9 21 6 23 -2 3 -7 -2 -11 -11z"/>
<path d="M6092 2185 c-100 -28 -157 -71 -200 -152 -50 -94 -64 -243 -29 -308
6 -11 11 -60 13 -110 1 -49 9 -131 19 -181 16 -90 17 -92 61 -124 31 -22 44
-38 42 -51 -2 -11 -7 -19 -12 -19 -4 1 -20 -14 -33 -34 -23 -32 -39 -39 -152
-75 -69 -22 -150 -46 -180 -52 -67 -14 -130 -68 -159 -138 -34 -78 -83 -260
-80 -294 l3 -32 838 -3 837 -2 0 37 c0 40 -59 202 -109 302 -56 110 -94 133
-323 191 -138 36 -163 53 -175 125 -5 29 -1 38 25 59 27 23 30 34 40 118 6 51
14 134 18 183 3 50 10 95 15 102 33 39 26 196 -11 280 -27 62 -102 137 -163
164 -66 29 -207 36 -285 14z"/>
</g>
</svg>
